<svg width="183" height="39" viewBox="0 0 183 39" fill="none" xmlns="http://www.w3.org/2000/svg">
<g clip-path="url(#clip0_734_17878)">
<path d="M5.31872 24.9673H2.88473V22.2336H0.450745V16.7664H2.88473V14.0327H5.31872V5.83178H7.75272V3.09813H10.1867V0.455612H15.1448V5.9229H12.7108V8.65655H10.2769V16.8575H7.84286V22.3248H10.2769V30.5257H12.7108V33.2593H15.1448V38.7266H10.1867V35.993H7.75272V33.2593H5.31872V25.0584V24.9673Z" fill="#010500"/>
<path d="M177.591 33.1682H175.157V35.9019H172.723V38.6355H167.765V33.1682H170.199V30.4346H172.633V22.2337H175.067V16.7664H172.633V8.56542H170.199V5.83178H167.765V0.455612H172.723V3.18926H175.157V5.9229H177.591V14.1238H180.025V16.8575H182.459V22.3248H180.025V25.0584H177.591V33.2593V33.1682Z" fill="#010500"/>
<path d="M36.3296 30.3435L38.6734 29.6145L37.9522 27.2453L40.2961 26.5164L39.5749 24.1472L41.9187 23.4182L41.1976 21.0491L43.5414 20.3201L42.8202 17.9509L45.1641 17.222L44.4429 14.8528L46.7867 14.1238L46.0655 11.7547L48.4094 11.0257L47.6882 8.65654L50.032 7.92757L49.3109 5.55841L51.6547 4.82944L50.9335 2.46028L53.2774 1.73131L55.6212 1.00233L56.3424 3.37149L57.0636 5.74065L54.7197 6.46962L55.4409 8.83878L53.0971 9.56775L53.8182 11.9369L51.4744 12.6659L52.1956 15.035L49.8517 15.764L50.5729 18.1332L48.2291 18.8621L48.9503 21.2313L46.6064 21.9603L47.3276 24.3294L44.9838 25.0584L45.7049 27.4276L43.3611 28.1565L44.0823 30.5257L41.7384 31.2547L42.4596 33.6238L40.1158 34.3528L40.837 36.722L36.1493 38.1799L35.4281 35.8107L34.7069 33.4416L37.0508 32.7126L36.3296 30.3435Z" fill="#010500"/>
<path d="M68.4221 17.0397V9.56776H70.8561V7.10748H73.2901V4.6472H90.5084V7.10748H92.9423V9.56776H95.3763V29.4322H92.9423V31.8925H90.5084V34.3528H73.2901V31.8925H70.8561V29.4322H68.4221V21.9603H65.9882V34.3528H61.03V4.6472H65.9882V17.0397H68.4221ZM75.8143 9.56776V12.028H73.3803V26.972H75.8143V29.4322H88.0744V26.972H90.5084V12.028H88.0744V9.56776H75.8143Z" fill="#F8FCF7" stroke="#010500" stroke-miterlimit="10"/>
<path d="M102.859 29.4322H107.817V34.4439H102.859V29.4322Z" fill="#010500" stroke="#F8FCF7" stroke-miterlimit="10"/>
<path d="M122.511 9.56776V12.028H120.077V26.972H122.511V29.4322H134.771V26.972H137.205V24.5117H142.163V29.5234H139.729V31.9836H137.295V34.4439H120.077V31.9836H117.643V29.5234H115.209V9.56776H117.643V7.10748H120.077V4.6472H137.295V7.10748H139.729V9.56776H142.163V14.5794H137.205V12.1192H134.771V9.65888H122.511V9.56776Z" fill="#010500"/>
<path d="M31.2813 10.1145H28.8473V12.8481H26.4133V15.5818H23.9793V18.3154H21.5453V21.0491H23.9793V23.7827H26.4133V26.5164H28.8473V29.25H31.2813V34.6262H26.3232V31.8925H23.8892V29.1589H21.4552V26.4252H19.0212V23.6916H16.5872V15.5818H19.0212V12.8481H21.4552V10.1145H23.8892V7.38085H26.3232V4.6472H31.2813V10.0234V10.1145Z" fill="#010500"/>
<path d="M151.088 4.6472H156.046V7.38085H158.48V10.1145H160.914V12.8481H163.348V15.5818H165.782V23.6916H163.348V26.4252H160.914V29.1589H158.48V31.8925H156.046V34.6262H151.088V29.25H153.522V26.5164H155.956V23.7827H158.39V21.0491H160.824V18.3154H158.39V15.5818H155.956V12.8481H153.522V10.1145H151.088V4.73832V4.6472Z" fill="#010500"/>
</g>
<defs>
<clipPath id="clip0_734_17878">
<rect width="183" height="39" fill="white"/>
</clipPath>
</defs>
</svg>
