<svg width="100" height="76" viewBox="0 0 100 76" fill="none" xmlns="http://www.w3.org/2000/svg">
<path d="M95.25 32.7734V27.9922H90.4688V23.2422H85.7188V18.4609H80.9688V27.9922H76.1875V32.7734H71.4375V18.4609H80.9688V13.7109H57.1563V8.96094H52.375V42.2734H4.78125V27.9922H0V61.3359H4.78125V47.0547H52.375V61.3359H33.3438V56.5547H28.5625V70.8672H33.3438V66.0859H61.9062V70.8672H66.6875V56.5547H61.9062V61.3359H57.1563V18.4609H66.6875V37.5234H71.4375V42.2734H95.25V61.3359H100V32.7734H95.25Z" fill="#CB69BF"/>
<path d="M85.7188 56.5547H80.9688V70.8672H85.7188V66.0859H95.25V61.3359H85.7188V56.5547Z" fill="#CB69BF"/>
<path d="M80.9687 70.8672H66.6875V75.6172H80.9687V70.8672Z" fill="#CB69BF"/>
<path d="M76.1875 61.3359H71.4375V66.0859H76.1875V61.3359Z" fill="#CB69BF"/>
<path d="M80.9687 51.8047H66.6875V56.5547H80.9687V51.8047Z" fill="#CB69BF"/>
<path d="M28.5625 51.8047H14.2812V56.5547H28.5625V51.8047Z" fill="#CB69BF"/>
<path d="M28.5625 70.8672H14.2812V75.6172H28.5625V70.8672Z" fill="#CB69BF"/>
<path d="M23.8125 61.3359H19.0625V66.0859H23.8125V61.3359Z" fill="#CB69BF"/>
<path d="M14.2813 56.5547H9.53125V61.3359H4.78125V66.0859H9.53125V70.8672H14.2813V56.5547Z" fill="#CB69BF"/>
<path d="M46.0214 9.92676H42.8263V25.8397H46.0214V9.92676Z" fill="#CB69BF"/>
<path d="M42.8232 25.8389H39.649V29.0131H42.8232V25.8389Z" fill="#CB69BF"/>
<path d="M42.8232 6.73145H39.649V9.92655H42.8232V6.73145Z" fill="#CB69BF"/>
<path d="M39.6504 29.0137H36.4553V32.2088H39.6504V29.0137Z" fill="#CB69BF"/>
<path d="M39.6504 3.55664H36.4553V6.73087H39.6504V3.55664Z" fill="#CB69BF"/>
<path d="M36.4563 19.4697H33.2821V22.644H36.4563V19.4697Z" fill="#CB69BF"/>
<path d="M36.4566 32.209H20.5646V35.3832H36.4566V32.209Z" fill="#CB69BF"/>
<path d="M33.2814 16.2959H23.7379V19.4701H33.2814V16.2959Z" fill="#CB69BF"/>
<path d="M23.7379 22.6445V25.8396H26.9121V29.0139H30.1072V25.8396H33.2814V22.6445H23.7379Z" fill="#CB69BF"/>
<path d="M33.2814 13.1008V9.92655H30.1072V6.73145H26.9121V9.92655H23.7379V13.1008H33.2814Z" fill="#CB69BF"/>
<path d="M36.4566 0.382812H20.5646V3.55704H36.4566V0.382812Z" fill="#CB69BF"/>
<path d="M23.7388 13.1006H20.5646V16.2957H23.7388V13.1006Z" fill="#CB69BF"/>
<path d="M20.562 29.0137H17.3669V32.2088H20.562V29.0137Z" fill="#CB69BF"/>
<path d="M20.562 3.55664H17.3669V6.73087H20.562V3.55664Z" fill="#CB69BF"/>
<path d="M17.3679 25.8389H14.1936V29.0131H17.3679V25.8389Z" fill="#CB69BF"/>
<path d="M17.3679 6.73145H14.1936V9.92655H17.3679V6.73145Z" fill="#CB69BF"/>
<path d="M14.1951 9.92676H11V25.8397H14.1951V9.92676Z" fill="#CB69BF"/>
</svg>
