<svg width="100" height="100" viewBox="0 0 100 100" fill="none" xmlns="http://www.w3.org/2000/svg">
<path d="M100 14.2812H95.2188V38.0937H100V14.2812Z" fill="#6988CB"/>
<path d="M95.2187 38.0938H90.4688V42.8438H95.2187V38.0938Z" fill="#6988CB"/>
<path d="M95.2187 9.53125H90.4688V14.2813H95.2187V9.53125Z" fill="#6988CB"/>
<path d="M85.7188 85.7187V71.4375H95.2187V66.6562H90.4688V61.9062H85.7188V57.1562H80.9375V61.9062H76.1875V66.6562H71.4062V71.4375H80.9375V85.7187H85.7188Z" fill="#6988CB"/>
<path d="M90.4688 42.8438H85.7188V47.625H90.4688V42.8438Z" fill="#6988CB"/>
<path d="M90.4688 4.75H85.7188V9.53125H90.4688V4.75Z" fill="#6988CB"/>
<path d="M85.7188 28.5625H80.9375V33.3437H85.7188V28.5625Z" fill="#6988CB"/>
<path d="M80.9375 85.7188H76.1875V90.4688H80.9375V85.7188Z" fill="#6988CB"/>
<path d="M85.7188 47.625H61.9062V52.375H85.7188V47.625Z" fill="#6988CB"/>
<path d="M80.9375 23.8125H66.6562V28.5625H80.9375V23.8125Z" fill="#6988CB"/>
<path d="M66.6562 33.3438V38.0937H71.4063V42.8438H76.1875V38.0937H80.9375V33.3438H66.6562Z" fill="#6988CB"/>
<path d="M80.9375 19.0625V14.2813H76.1875V9.53125H71.4063V14.2813H66.6562V19.0625H80.9375Z" fill="#6988CB"/>
<path d="M76.1875 90.4688H57.125V95.25H76.1875V90.4688Z" fill="#6988CB"/>
<path d="M85.7188 0H61.9062V4.75H85.7188V0Z" fill="#6988CB"/>
<path d="M66.6563 19.0625H61.9062V23.8125H66.6563V19.0625Z" fill="#6988CB"/>
<path d="M61.9062 42.8438H57.125V47.625H61.9062V42.8438Z" fill="#6988CB"/>
<path d="M61.9062 4.75H57.125V9.53125H61.9062V4.75Z" fill="#6988CB"/>
<path d="M57.125 38.0938H52.375V42.8438H57.125V38.0938Z" fill="#6988CB"/>
<path d="M57.125 9.53125H52.375V14.2813H57.125V9.53125Z" fill="#6988CB"/>
<path d="M52.375 61.9062H47.625V85.7188H52.375V61.9062Z" fill="#6988CB"/>
<path d="M52.375 14.2812H47.625V38.0937H52.375V14.2812Z" fill="#6988CB"/>
<path d="M47.625 85.7188H42.8438V90.4688H47.625V85.7188Z" fill="#6988CB"/>
<path d="M47.625 57.1562H42.8438V61.9062H47.625V57.1562Z" fill="#6988CB"/>
<path d="M42.8438 90.4688H38.0938V95.25H42.8438V90.4688Z" fill="#6988CB"/>
<path d="M42.8438 52.375H38.0938V57.1563H42.8438V52.375Z" fill="#6988CB"/>
<path d="M38.0937 95.25H14.2812V100H38.0937V95.25Z" fill="#6988CB"/>
<path d="M42.8438 4.75H23.8125V9.53125H42.8438V4.75Z" fill="#6988CB"/>
<path d="M33.3125 85.7188H23.8125V90.4688H33.3125V85.7188Z" fill="#6988CB"/>
<path d="M33.3125 57.1562H23.8125V61.9062H33.3125V57.1562Z" fill="#6988CB"/>
<path d="M19.0313 85.7188H23.8125V80.9688H28.5625V76.1875H19.0313V71.4375H33.3125V66.6563H23.8125V61.9062H19.0313V66.6563H9.5V71.4375H14.2813V76.1875H9.5V80.9688H19.0313V85.7188Z" fill="#6988CB"/>
<path d="M38.0937 47.625H14.2812V52.375H38.0937V47.625Z" fill="#6988CB"/>
<path d="M23.8125 9.53125H19.0312V14.2813H23.8125V9.53125Z" fill="#6988CB"/>
<path d="M14.2813 90.4688H9.5V95.25H14.2813V90.4688Z" fill="#6988CB"/>
<path d="M14.2813 52.375H9.5V57.1563H14.2813V52.375Z" fill="#6988CB"/>
<path d="M9.5 38.0937H14.2813V42.8437H19.0313V38.0937H23.8125V33.3438H28.5625V28.5625H19.0313V14.2812H14.2813V28.5625H4.75V33.3438H9.5V38.0937Z" fill="#6988CB"/>
<path d="M9.5 85.7188H4.75V90.4688H9.5V85.7188Z" fill="#6988CB"/>
<path d="M9.5 57.1562H4.75V61.9062H9.5V57.1562Z" fill="#6988CB"/>
<path d="M4.75 61.9062H0V85.7188H4.75V61.9062Z" fill="#6988CB"/>
</svg>
