<svg width="100" height="96" viewBox="0 0 100 96" fill="none" xmlns="http://www.w3.org/2000/svg">
<path d="M61.9062 90.8594H23.8125V95.6094H61.9062V90.8594Z" fill="#CBC869"/>
<path d="M76.1875 86.1094H61.9062V90.8594H76.1875V86.1094Z" fill="#CBC869"/>
<path d="M47.625 81.3281V76.5781H14.2812V81.3281H19.0625V90.8594H23.8125V81.3281H47.625Z" fill="#CBC869"/>
<path d="M38.0938 67.0469V62.2969H4.78125V67.0469H9.53125V76.5781H14.2813V67.0469H38.0938Z" fill="#CBC869"/>
<path d="M4.78125 52.7656H0V62.2969H4.78125V52.7656Z" fill="#CBC869"/>
<path d="M57.1563 48.0156H52.375V52.7656H57.1563V48.0156Z" fill="#CBC869"/>
<path d="M33.3438 48.0156H14.2812V52.7656H33.3438V48.0156Z" fill="#CBC869"/>
<path d="M52.375 38.4844H47.625V48.0156H52.375V38.4844Z" fill="#CBC869"/>
<path d="M38.0937 43.2344H33.3438V48.0156H38.0937V43.2344Z" fill="#CBC869"/>
<path d="M14.2813 43.2344H9.53125V48.0156H14.2813V43.2344Z" fill="#CBC869"/>
<path d="M23.8125 43.2344V38.4844H28.5625V33.7031H14.2812V38.4844H19.0625V43.2344H23.8125Z" fill="#CBC869"/>
<path d="M9.53125 38.4844H4.78125V43.2344H9.53125V38.4844Z" fill="#CBC869"/>
<path d="M47.625 28.9531H42.875V38.4844H47.625V28.9531Z" fill="#CBC869"/>
<path d="M4.78125 14.6719H0V38.4844H4.78125V14.6719Z" fill="#CBC869"/>
<path d="M85.7188 28.9375V33.6875H80.9688V38.4688H85.7188V81.3125H76.1875V86.125H85.7188V90.875H100V28.9375H85.7188ZM95.25 81.3125H90.4688V71.7813H95.25V81.3125Z" fill="#CBC869"/>
<path d="M80.9688 28.9531H76.1875V33.7031H80.9688V28.9531Z" fill="#CBC869"/>
<path d="M33.3437 28.9531H28.5625V33.7031H33.3437V28.9531Z" fill="#CBC869"/>
<path d="M76.1875 24.2031H66.6875V28.9531H76.1875V24.2031Z" fill="#CBC869"/>
<path d="M42.875 24.2031H38.0938V28.9531H42.875V24.2031Z" fill="#CBC869"/>
<path d="M28.5625 24.2031H14.2812V28.9531H28.5625V24.2031Z" fill="#CBC869"/>
<path d="M66.6875 19.4219H61.9062V24.2031H66.6875V19.4219Z" fill="#CBC869"/>
<path d="M14.2813 19.4219H9.53125V24.2031H14.2813V19.4219Z" fill="#CBC869"/>
<path d="M61.9062 14.6719H57.1562V19.4219H61.9062V14.6719Z" fill="#CBC869"/>
<path d="M28.5625 19.4219V14.6719H23.8125V9.92188H19.0625V14.6719H14.2812V19.4219H28.5625Z" fill="#CBC869"/>
<path d="M57.1563 9.92188H52.375V14.6719H57.1563V9.92188Z" fill="#CBC869"/>
<path d="M38.0937 9.92188H33.3438V24.2031H38.0937V9.92188Z" fill="#CBC869"/>
<path d="M9.53125 9.92188H4.78125V14.6719H9.53125V9.92188Z" fill="#CBC869"/>
<path d="M52.375 5.14062H38.0938V9.92188H52.375V5.14062Z" fill="#CBC869"/>
<path d="M14.2813 5.14062H9.53125V9.92188H14.2813V5.14062Z" fill="#CBC869"/>
<path d="M33.3438 0.390625H14.2812V5.14063H33.3438V0.390625Z" fill="#CBC869"/>
</svg>
