<?xml version="1.0" encoding="utf-8"?>
<!-- Generator: Adobe Illustrator 23.0.1, SVG Export Plug-In . SVG Version: 6.00 Build 0)  -->
<svg version="1.1" id="Layer_1" xmlns="http://www.w3.org/2000/svg" xmlns:xlink="http://www.w3.org/1999/xlink" x="0px" y="0px"
	 viewBox="0 0 1000 1000" style="enable-background:new 0 0 1000 1000;" xml:space="preserve">
<style type="text/css">
	.st0{fill:#352A13;}
	.st1{fill:#EF3F2F;}
</style>
<g>
	<path class="st0" d="M669.4,448.3c-18,0-31.5,8.9-31.5,30.2c0,15.9,8.9,27.2,30.5,27.2c18.4,0,30.8-10.8,30.8-27.9
		C699.2,458.5,688,448.3,669.4,448.3z M633.3,598.9c-4.3,5.2-8.5,10.8-8.5,17.2c0,13.1,16.7,17.1,39.7,17.1c19,0,44.9-1.3,44.9-19
		c0-10.5-12.5-11.2-28.2-12.2l-47.8-3.3L633.3,598.9z M730.4,449.3c5.9,7.6,12.1,18,12.1,33.1c0,36.4-28.7,57.7-69.9,57.7
		c-10.6,0-19.9-1.3-25.9-3l-10.8,17.2l32.2,2c56.8,3.6,90.2,5.3,90.2,48.9c0,37.7-33.1,59-90.2,59c-59.4,0-82-15.1-82-41.1
		c0-14.8,6.6-22.6,18-33.5c-10.8-4.6-14.4-12.8-14.4-21.6c0-7.2,3.6-13.8,9.5-19.9l20.3-19.7c-16.1-7.9-28.2-24.9-28.2-49.1
		c0-37.7,24.9-63.6,75.1-63.6c14.1,0,22.6,1.3,30.2,3.3h64V447L730.4,449.3 M818.3,389.7c-18.6,0-29.5-10.8-29.5-29.5
		s10.8-28.9,29.5-28.9c19,0,29.9,10.2,29.9,28.9C848.1,378.8,837.3,389.7,818.3,389.7L818.3,389.7z M775.8,586.8v-25.9l16.7-2.3
		c4.6-0.7,5.3-1.6,5.3-6.6v-96.4c0-3.6-1-5.9-4.3-6.9l-17.7-6.2l3.6-26.6h67.9v136.1c0,5.3,0.3,5.9,5.3,6.6l16.7,2.3v25.9
		L775.8,586.8 M999.2,574.1c-14.1,6.9-34.8,13.3-53.5,13.3c-39.1,0-53.8-15.7-53.8-52.8v-86c0-2,0-3.3-2.7-3.3h-22.8v-29.2
		c28.9-3.2,40.4-17.7,44-53.5h31.2v46.6c0,2.3,0,3.3,2.6,3.3h46.3v32.8h-49v78.3c0,19.4,4.6,26.9,22.3,26.9c9.2,0,18.6-2.3,26.6-5.2
		L999.2,574.1"/>
	<path class="st1" d="M442.7,479.9L246,283.3c-11.3-11.3-29.7-11.3-41,0l-40.8,40.8l51.8,51.8c12-4.1,25.8-1.3,35.4,8.2
		c9.3,9.3,12.5,23.2,8.2,35.7l49.9,49.9c11.9-4.2,26-1.5,35.7,8.2c13.5,13.5,13.5,35.3,0.1,48.8c-4.3,4.3-9.7,7.4-15.5,9
		c-11.9,3.2-24.6-0.2-33.3-8.9c-10.1-10.1-12.6-25-7.5-37.5l-46.4-46.4v122.5c3.2,1.6,6.4,3.8,9.1,6.5c13.5,13.5,13.5,35.3,0,48.8
		c-13.5,13.5-35.3,13.5-48.8,0c0,0,0,0,0,0c-13.5-13.5-13.5-35.3,0-48.8c3.2-3.2,7.1-5.8,11.3-7.5V440.6c-4-1.7-8-4.2-11.3-7.4
		c-9.9-9.9-12.8-24.8-7.4-37.7l-51.1-51.1L9.3,479c-11.3,11.3-11.3,29.7,0,41L206,716.7c11.3,11.3,29.7,11.3,41,0L442.7,521
		C454,509.6,454,491.3,442.7,479.9"/>
</g>
</svg>
