<?xml version="1.0" encoding="utf-8"?>
<!-- Generator: Adobe Illustrator 23.0.1, SVG Export Plug-In . SVG Version: 6.00 Build 0)  -->
<svg version="1.1" id="Layer_1" xmlns="http://www.w3.org/2000/svg" xmlns:xlink="http://www.w3.org/1999/xlink" x="0px" y="0px"
	 viewBox="0 0 1000 1000" style="enable-background:new 0 0 1000 1000;" xml:space="preserve">
<style type="text/css">
	.st0{fill:#FFFFFF;}
	.st1{fill:#2997D4;}
	.st2{fill:#222222;}
</style>
<g>
	<path class="st0" d="M526.3,385.8v228.3h-56.8V385.8H526.3z M667.3,378.5c67.8,0,122.5,52.7,122.5,120.9
		c0,68.6-55.1,122.1-123.4,122.1s-123.3-53.1-123.3-121.3C543.5,432,599.5,378.5,667.3,378.5L667.3,378.5z M666.9,566
		c35.9,0,62.5-31,62.5-66.2S702.8,434,666.9,434c-35.9,0-62.5,30.6-62.5,65.8S630.9,566,666.9,566z M796.3,544.8l51.9-12.3
		c3.7,27.4,23.7,37.2,44.5,37.2c20.8,0,28.2-12.3,28.2-22.1c0-7.8-4.5-15.5-19.6-18.4l-31.9-6.2c-38-7.4-64.9-31-64.9-67.8
		c0-43.7,39.6-74.3,85-74.3c58,0,81.7,35.9,85.8,66.6L925,462.3c-2.9-18.8-14.3-32.3-35.1-32.3c-18,0-26.5,11.8-26.5,21.1
		c0,7.8,3.7,16.3,17.2,18.8l33.1,6.1c43.3,8.6,67,34.7,67,69c0,37.2-32.3,73.1-87.4,73.1c-58.4,0.4-89-29.8-96.8-73.5L796.3,544.8z"
		/>
	<path class="st1" d="M80.3,613.8H19.4l100.5-227.9h61.3L80.3,613.8z"/>
	<path class="st0" d="M221.2,613.8h76.4l47.8-72.3l47.4,72.3h62.5l-75.6-116.4l76.1-111.9h-69.4l-40.8,67.8l-39.6-67.8h-70.2
		l76.4,111.9l-49.4,72.3l-81.3-183.8h-61.3L221.2,613.8z"/>
	<g>
		<path class="st2" d="M526.3,385.8v228.3h-56.8V385.8H526.3z M667.3,378.5c67.8,0,122.5,52.7,122.5,120.9
			c0,68.6-55.1,122.1-123.4,122.1s-123.3-53.1-123.3-121.3C543.5,432,599.5,378.5,667.3,378.5L667.3,378.5z M666.8,566
			c35.9,0,62.5-31,62.5-66.2S702.8,434,666.8,434s-62.5,30.6-62.5,65.8S630.9,566,666.8,566z M796.3,544.8l51.9-12.3
			c3.7,27.4,23.7,37.2,44.5,37.2c20.8,0,28.2-12.3,28.2-22.1c0-7.8-4.5-15.5-19.6-18.4l-31.9-6.2c-38-7.4-64.9-31-64.9-67.8
			c0-43.7,39.6-74.3,85-74.3c58,0,81.7,35.9,85.8,66.6L925,462.3c-2.9-18.8-14.3-32.3-35.1-32.3c-18,0-26.5,11.8-26.5,21.1
			c0,7.8,3.7,16.3,17.2,18.8l33.1,6.1c43.3,8.6,67,34.7,67,69c0,37.2-32.3,73.1-87.4,73.1c-58.4,0.4-89-29.8-96.8-73.5L796.3,544.8z
			 M119.9,385.8h61.3l81.3,183.8l49.4-72.3l-76.4-111.9h70.2l39.6,67.8l40.8-67.8h69.4l-76,111.9l75.6,116.4h-62.5l-47.4-72.3
			l-47.8,72.3h-76.4l-69.6-159.5L119.9,385.8z"/>
		<path class="st2" d="M119.9,385.8l101.3,227.9l-23.5-136.8L119.9,385.8"/>
	</g>
</g>
</svg>
