<?xml version="1.0" encoding="utf-8"?>
<!-- Generator: Adobe Illustrator 24.2.0, SVG Export Plug-In . SVG Version: 6.00 Build 0)  -->
<svg version="1.1" id="Layer_1" xmlns="http://www.w3.org/2000/svg" xmlns:xlink="http://www.w3.org/1999/xlink" x="0px" y="0px"
	 viewBox="0 0 1000 1000" style="enable-background:new 0 0 1000 1000;" xml:space="preserve">
<style type="text/css">
	.st0{fill:#010101;}
	.st1{fill:#E44F26;}
	.st2{fill:#F1672A;}
	.st3{fill:#FFFFFF;}
	.st4{fill:#EBEBEB;}
</style>
<g>
	<path class="st0" d="M348.5,159.8h-30.6v-33.4H284v100.8h33.9v-33.4h30.6v33.4h33.9V126.4h-33.9V159.8z M584.9,126.4h-3l-21,34.4
		l-21-34.4h-2.4h-31.2h-1.6v100.8h32.8v-50.3l23.3,36.3l0,0.1l0,0l0,0l0-0.1l23.9-37.3v51.3h32.8V126.4h-2.3H584.9z M397.1,160.3
		h29.5v66.9h33.9v-66.9H490v-33.9h-92.9V160.3z M668.8,193.3v-66.9h-33.9v100.8h8.6h25.3H716v-33.9H668.8z"/>
	<polygon class="st1" points="765.4,272.9 500,272.9 500,272.9 234.6,272.9 284.3,812.5 500,873.6 500,873.6 500,873.6 500,873.6 
		500,873.6 715.7,812.5 	"/>
	<polygon class="st2" points="500,316.8 500,827.9 500,827.9 674.7,778.4 717.2,316.8 	"/>
	<polygon class="st3" points="667,383 333,383 351.7,585.1 352,583.8 580.3,583.8 572.8,669.3 500.1,690.3 426.1,669 421.7,617.3 
		354.6,617.3 364.2,720.7 500,759.2 635.8,720.7 654.6,517.8 412.4,517.8 406.2,450.1 660.8,450.1 	"/>
	<g>
		<path class="st4" d="M500,383H333l18.6,202.1l0.4-1.3H500v-66.1h-87.6l-6.2-67.6H500V383z M421.7,617.3h-67l9.5,103.4L500,759.2
			v-68.9L426.1,669L421.7,617.3z"/>
	</g>
</g>
</svg>
