<?xml version="1.0" encoding="UTF-8"?>
<svg id="Layer_2" data-name="Layer 2" xmlns="http://www.w3.org/2000/svg" viewBox="0 0 51.56 7.03">
  <g id="Layer_1-2" data-name="Layer 1">
    <g>
      <path d="m5.27,0h1.17v7.03h-1.17v-1.17h-.59v-.59h-.59v-.59h-.59v-.59h-.59v-.59h-.59v-.59h-.59v-.59h-.59v4.69H0V0h1.17v.59h.59v.59h.59v.59h.59v.59h.59v.59h.59v.59h.59v.59h.59V0Z"/>
      <path d="m14.06,5.86h-.59v.59h-.59v.59h-4.1v-.59h-.59v-.59h-.59V1.17h.59v-.59h.59v-.59h4.1v.59h.59v.59h.59v4.69ZM9.38,1.17v.59h-.59v3.52h.59v.59h2.93v-.59h.59V1.76h-.59v-.59h-2.93Z"/>
      <path d="m15.23,0h5.27v.59h.59v.59h.59v4.69h-.59v.59h-.59v.59h-5.27V0Zm1.17,1.17v4.69h3.52v-.59h.59V1.76h-.59v-.59h-3.52Z"/>
      <path d="m22.85,0h6.45v1.17h-5.27v1.76h4.1v1.17h-4.1v1.76h5.27v1.17h-6.45V0Z"/>
      <path d="m38.67,4.1v1.17h.59v.59h2.93v-.59h.59V1.17h-1.17V0h2.34v5.86h-.59v.59h-.59v.59h-4.1v-.59h-.59v-.59h-.59v-1.76h1.17Z"/>
      <path d="m46.29,4.69v.59h.59v.59h2.93v-.59h.59v-.59h-.59v-.59h-3.52v-.59h-.59v-.59h-.59v-1.76h.59v-.59h.59v-.59h4.1v.59h.59v.59h.59v1.17h-1.17v-.59h-.59v-.59h-2.93v.59h-.59v.59h.59v.59h3.52v.59h.59v.59h.59v1.76h-.59v.59h-.59v.59h-4.1v-.59h-.59v-.59h-.59v-1.17h1.17Z"/>
    </g>
  </g>
</svg>