<?xml version="1.0" encoding="utf-8"?>
<!-- Generator: Adobe Illustrator 24.2.0, SVG Export Plug-In . SVG Version: 6.00 Build 0)  -->
<svg version="1.1" id="Layer_1" xmlns="http://www.w3.org/2000/svg" xmlns:xlink="http://www.w3.org/1999/xlink" x="0px" y="0px"
	 viewBox="0 0 1000 1000" style="enable-background:new 0 0 1000 1000;" xml:space="preserve">
<style type="text/css">
	.st0{fill:#010101;}
	.st1{fill:#356892;}
	.st2{fill:#FFFFFF;}
</style>
<g>
	<g>
		<path class="st0" d="M847.1,573.3c-4.2-12.7-15.2-21.6-29.4-23.7c-6.7-1-14.4-0.6-23.5,1.3c-15.8,3.3-27.6,4.5-36.1,4.7
			c32.3-54.6,58.7-116.9,73.8-175.5c24.5-94.8,11.4-138-3.9-157.5c-40.5-51.7-99.5-79.5-170.7-80.3c-38-0.5-71.3,7-88.7,12.4
			c-16.2-2.9-33.6-4.5-51.9-4.7c-34.3-0.5-64.5,6.9-90.4,22.3c-14.3-4.8-37.3-11.7-63.8-16c-62.4-10.2-112.7-2.3-149.5,23.7
			c-44.6,31.5-65.2,86.2-61.4,162.5c1.2,24.3,14.8,98,36.1,168c12.3,40.2,25.4,73.6,38.9,99.3c19.2,36.4,39.8,57.8,62.8,65.5
			c12.9,4.3,36.4,7.3,61.1-13.3c3.1,3.8,7.3,7.6,12.9,11.1c7,4.4,15.7,8.1,24.3,10.2c31,7.7,60,5.8,84.8-5.1
			c0.2,4.4,0.3,8.6,0.4,12.2c0.2,5.9,0.3,11.7,0.5,17.1c1.5,36.5,4,65,11.3,84.9c0.4,1.1,0.9,2.8,1.5,4.5
			c3.7,11.3,9.8,30.1,25.5,44.8c16.2,15.3,35.8,20,53.7,20c9,0,17.6-1.2,25.1-2.8c26.8-5.8,57.3-14.5,79.4-45.9
			c20.8-29.7,31-74.4,32.8-144.8c0.2-2,0.5-3.9,0.7-5.7l0.4-3.7l4.9,0.4l1.3,0.1c27.3,1.2,60.8-4.6,81.3-14.1
			C807.4,637.7,859.3,610.3,847.1,573.3"/>
		<path class="st1" d="M800.4,580.5c-81.3,16.8-86.9-10.8-86.9-10.8c85.8-127.3,121.7-289,90.7-328.5
			c-84.5-107.9-230.6-56.9-233.1-55.5l-0.8,0.1c-16.1-3.3-34-5.3-54.2-5.6c-36.8-0.6-64.7,9.6-85.8,25.7
			c0,0-260.8-107.4-248.7,135.1c2.6,51.6,74,390.4,159.1,288.1c31.1-37.4,61.2-69.1,61.2-69.1c14.9,9.9,32.8,15,51.6,13.2l1.5-1.2
			c-0.5,4.6-0.2,9.2,0.6,14.6c-21.9,24.5-15.5,28.8-59.3,37.8c-44.4,9.1-18.3,25.4-1.3,29.7c20.6,5.2,68.4,12.5,100.6-32.7l-1.3,5.2
			c8.6,6.9,14.6,44.8,13.6,79.1c-1,34.3-1.7,57.9,5.1,76.3c6.8,18.4,13.5,59.9,71.2,47.5c48.2-10.3,73.1-37.1,76.6-81.7
			c2.5-31.7,8-27,8.4-55.4l4.5-13.4c5.2-43,0.8-56.9,30.5-50.4l7.2,0.6c21.8,1,50.4-3.5,67.2-11.3
			C814.6,601.1,836,573.1,800.4,580.5L800.4,580.5"/>
		<path class="st2" d="M445.6,364c-7.3-1-14-0.1-17.3,2.5c-1.9,1.4-2.5,3.1-2.6,4.2c-0.4,3,1.7,6.4,3,8.1c3.7,4.9,9.1,8.2,14.4,9
			c0.8,0.1,1.5,0.2,2.3,0.2c8.9,0,16.9-6.9,17.6-12C463.8,369.5,454.6,365.3,445.6,364 M688.2,364.2c-0.7-5-9.6-6.4-18.1-5.3
			c-8.4,1.2-16.6,5-15.9,10c0.5,3.9,7.6,10.6,15.9,10.6c0.7,0,1.4,0,2.1-0.1c5.6-0.8,9.6-4.3,11.6-6.3
			C686.8,369.9,688.5,366.5,688.2,364.2"/>
		<path class="st2" d="M827.4,578.5c-3.1-9.4-13.1-12.4-29.6-9c-49.2,10.2-66.8,3.1-72.6-1.1c38.2-58.3,69.7-128.7,86.7-194.4
			c8-31.1,12.5-60,12.8-83.6c0.4-25.9-4-44.9-13.1-56.5c-36.6-46.8-90.4-71.9-155.4-72.6c-44.7-0.5-82.5,10.9-89.9,14.2
			c-15.4-3.8-32.2-6.2-50.6-6.5c-33.6-0.5-62.6,7.5-86.6,23.9c-10.4-3.9-37.4-13.1-70.4-18.5c-57-9.2-102.4-2.2-134.7,20.7
			c-38.6,27.3-56.4,76.2-53,145.3c1.2,23.2,14.4,94.7,35.3,163.1c27.5,90.1,57.4,141.1,88.8,151.6c3.7,1.2,7.9,2.1,12.6,2.1
			c11.5,0,25.5-5.2,40.2-22.8c17.8-21.4,36.3-42.3,55.4-62.7c12.4,6.6,25.9,10.3,39.8,10.7c0,0.4,0.1,0.7,0.1,1.1
			c-2.4,2.9-4.7,5.7-7,8.7c-9.6,12.2-11.6,14.8-42.6,21.1c-8.8,1.8-32.2,6.6-32.6,23.1c-0.4,17.9,27.7,25.5,30.9,26.3
			c11.1,2.8,21.9,4.2,32.1,4.2c24.9,0,46.8-8.2,64.3-24c-0.5,63.9,2.1,126.9,9.8,146.1c6.3,15.7,21.6,54.1,70.1,54.1
			c7.1,0,14.9-0.8,23.6-2.7c50.6-10.8,72.6-33.2,81.1-82.5c4.5-26.4,12.4-89.3,16-123.1c7.8,2.4,17.7,3.5,28.5,3.5
			c22.5,0,48.5-4.8,64.7-12.3C800.4,617.5,833.4,596.7,827.4,578.5 M706.9,350.4c-0.2,10-1.5,19-3,28.5c-1.6,10.2-3.2,20.7-3.6,33.4
			c-0.4,12.4,1.1,25.3,2.6,37.8c3,25.2,6.1,51.1-5.9,76.7c-2-3.5-3.8-7.2-5.3-11c-1.5-3.6-4.7-9.4-9.2-17.5
			C665,467,624.1,393.5,645,363.6C651.3,354.6,667.1,345.5,706.9,350.4L706.9,350.4z M658.7,181.6c58.3,1.3,104.4,23.1,137.1,64.8
			c25,32-2.5,177.6-82.4,303.3c-0.8-1-1.6-2-2.4-3.1l-1-1.3c20.6-34.1,16.6-67.8,13-97.7c-1.5-12.3-2.9-23.8-2.5-34.7
			c0.4-11.5,1.9-21.4,3.4-31c1.8-11.8,3.7-24,3.1-38.4c0.4-1.5,0.5-3.3,0.3-5.4c-1.3-13.8-17-55-49.1-92.4
			c-17.5-20.4-43.1-43.3-78.1-58.7C615.1,184,635.7,181.1,658.7,181.6 M332.4,621.6c-16.1,19.4-27.3,15.7-30.9,14.5
			c-23.9-8-51.5-58.4-75.9-138.3c-21.1-69.2-33.5-138.8-34.4-158.3c-3.1-61.7,11.9-104.7,44.5-127.8c53-37.6,140.2-15.1,175.2-3.7
			c-0.5,0.5-1,1-1.5,1.5c-57.5,58.1-56.1,157.2-56,163.3c0,2.3,0.2,5.7,0.5,10.2c1,16.7,2.8,47.7-2.1,82.9
			c-4.6,32.7,5.5,64.7,27.6,87.7c2.3,2.4,4.7,4.6,7.2,6.7C376.6,570.9,355.2,594.2,332.4,621.6 M393.9,539.6
			c-17.8-18.6-25.9-44.5-22.2-71c5.2-37.1,3.3-69.5,2.2-86.9c-0.1-2.4-0.3-4.6-0.3-6.2c8.4-7.4,47.3-28.3,75.1-21.9
			c12.7,2.9,20.4,11.5,23.6,26.4c16.6,76.8,2.2,108.8-9.4,134.5c-2.4,5.3-4.6,10.3-6.6,15.5l-1.5,4c-3.8,10.1-7.3,19.5-9.5,28.5
			C426.3,562.4,407.9,554.3,393.9,539.6L393.9,539.6z M396.8,643.2c-5.5-1.4-10.5-3.8-13.4-5.8c2.4-1.1,6.8-2.7,14.3-4.3
			c36.4-7.5,42.1-12.8,54.4-28.4c2.8-3.6,6-7.6,10.4-12.6l0,0c6.6-7.4,9.6-6.1,15.1-3.9c4.4,1.8,8.7,7.4,10.5,13.5
			c0.8,2.9,1.8,8.4-1.3,12.6C461.1,650.4,423.6,649.9,396.8,643.2 M587.5,820.7c-44.6,9.6-60.4-13.2-70.8-39.2
			c-6.7-16.8-10-92.5-7.7-176.1c0-1.1-0.1-2.2-0.4-3.2c-0.3-2-0.7-4-1.2-5.9c-3.5-12.2-12-22.3-22.1-26.6c-4-1.7-11.5-4.7-20.4-2.5
			c1.9-7.8,5.2-16.7,8.8-26.3l1.5-4c1.7-4.5,3.8-9.3,6.1-14.2c12.1-26.9,28.7-63.8,10.7-147.1c-6.7-31.2-29.3-46.4-63.4-42.9
			c-20.5,2.1-39.2,10.4-48.5,15.1c-2,1-3.8,2-5.6,3c2.6-31.4,12.5-90.2,49.3-127.3c23.2-23.4,54.1-34.9,91.7-34.3
			c74.2,1.2,121.7,39.3,148.6,71c23.1,27.3,35.7,54.9,40.7,69.7c-37.6-3.8-63.2,3.6-76.1,22.1c-28.2,40.3,15.4,118.5,36.4,156.1
			c3.8,6.9,7.2,12.8,8.2,15.4c6.8,16.5,15.7,27.6,22.1,35.7c2,2.5,3.9,4.9,5.4,7c-11.4,3.3-31.8,10.9-30,48.8
			c-1.5,19-12.2,108.1-17.6,139.5C645.8,796,630.5,811.5,587.5,820.7L587.5,820.7z M773.6,607.7c-11.6,5.4-31.1,9.5-49.6,10.3
			c-20.4,1-30.8-2.3-33.3-4.3c-1.1-23.6,7.6-26.1,16.9-28.7c1.5-0.4,2.9-0.8,4.3-1.3c0.9,0.7,1.8,1.4,2.8,2.1
			c16.4,10.8,45.7,12,87.1,3.5l0.5-0.1C796.7,594.4,787.2,601.4,773.6,607.7"/>
	</g>
</g>
</svg>
