<?xml version="1.0" encoding="utf-8"?>
<!-- Generator: Adobe Illustrator 24.2.0, SVG Export Plug-In . SVG Version: 6.00 Build 0)  -->
<svg version="1.1" id="Layer_1" xmlns="http://www.w3.org/2000/svg" xmlns:xlink="http://www.w3.org/1999/xlink" x="0px" y="0px"
	 viewBox="0 0 1000 1000" style="enable-background:new 0 0 1000 1000;" xml:space="preserve">
<style type="text/css">
	.st0{fill:#FFFFFF;}
	.st1{fill:#54C1DE;}
</style>
<g>
	<path class="st0" d="M500,429.4c-38.6,0-69.9,31.3-69.9,69.9c0,38.6,31.3,69.9,69.9,69.9c38.6,0,69.9-31.3,69.9-69.9
		C569.9,460.7,538.6,429.4,500,429.4z M500,429.4c-38.6,0-69.9,31.3-69.9,69.9c0,38.6,31.3,69.9,69.9,69.9
		c38.6,0,69.9-31.3,69.9-69.9C569.9,460.7,538.6,429.4,500,429.4z M500,429.4c-38.6,0-69.9,31.3-69.9,69.9
		c0,38.6,31.3,69.9,69.9,69.9c38.6,0,69.9-31.3,69.9-69.9C569.9,460.7,538.6,429.4,500,429.4z M500,429.4
		c-38.6,0-69.9,31.3-69.9,69.9c0,38.6,31.3,69.9,69.9,69.9c38.6,0,69.9-31.3,69.9-69.9C569.9,460.7,538.6,429.4,500,429.4z
		 M500,429.4c-38.6,0-69.9,31.3-69.9,69.9c0,38.6,31.3,69.9,69.9,69.9c38.6,0,69.9-31.3,69.9-69.9
		C569.9,460.7,538.6,429.4,500,429.4z M500,429.4c-38.6,0-69.9,31.3-69.9,69.9c0,38.6,31.3,69.9,69.9,69.9
		c38.6,0,69.9-31.3,69.9-69.9C569.9,460.7,538.6,429.4,500,429.4z M500,429.4c-38.6,0-69.9,31.3-69.9,69.9
		c0,38.6,31.3,69.9,69.9,69.9c38.6,0,69.9-31.3,69.9-69.9C569.9,460.7,538.6,429.4,500,429.4z M500,429.4
		c-38.6,0-69.9,31.3-69.9,69.9c0,38.6,31.3,69.9,69.9,69.9c38.6,0,69.9-31.3,69.9-69.9C569.9,460.7,538.6,429.4,500,429.4z
		 M500,429.4c-38.6,0-69.9,31.3-69.9,69.9c0,38.6,31.3,69.9,69.9,69.9c38.6,0,69.9-31.3,69.9-69.9
		C569.9,460.7,538.6,429.4,500,429.4z M500,429.4c-38.6,0-69.9,31.3-69.9,69.9c0,38.6,31.3,69.9,69.9,69.9
		c38.6,0,69.9-31.3,69.9-69.9C569.9,460.7,538.6,429.4,500,429.4z M500,429.4c-38.6,0-69.9,31.3-69.9,69.9
		c0,38.6,31.3,69.9,69.9,69.9c38.6,0,69.9-31.3,69.9-69.9C569.9,460.7,538.6,429.4,500,429.4z M500,429.4
		c-38.6,0-69.9,31.3-69.9,69.9c0,38.6,31.3,69.9,69.9,69.9c38.6,0,69.9-31.3,69.9-69.9C569.9,460.7,538.6,429.4,500,429.4z
		 M752.2,377.5c-8.3-2.9-16.7-5.5-25.2-7.9c1.4-5.7,2.7-11.4,3.9-17.2c19.1-92.6,6.6-167.2-36-191.7c-40.8-23.5-107.6,1-175.1,59.7
		c-6.6,5.8-13.1,11.8-19.5,17.9c-4.2-4.1-8.6-8.1-13-12c-70.7-62.8-141.5-89.2-184.1-64.6c-40.8,23.6-52.9,93.7-35.7,181.5
		c1.7,8.7,3.6,17.3,5.8,25.9c-10,2.8-19.7,5.9-29,9.1c-82.9,28.9-135.8,74.2-135.8,121.1c0,48.5,56.8,97.2,143.1,126.7
		c7,2.4,14.1,4.6,21.2,6.6c-2.3,9.3-4.4,18.6-6.1,27.9c-16.4,86.2-3.6,154.7,37.1,178.1c42,24.2,112.5-0.7,181.2-60.7
		c5.4-4.7,10.9-9.8,16.3-15.1c6.9,6.6,13.9,13.1,21.2,19.3c66.5,57.2,132.2,80.4,172.9,56.8c42-24.3,55.6-97.8,37.9-187.3
		c-1.4-6.8-2.9-13.8-4.7-20.9c5-1.5,9.8-3,14.6-4.5c89.7-29.7,148.1-77.8,148.1-126.9C891.4,452.2,836.7,406.6,752.2,377.5z
		 M541.8,245.6c57.8-50.3,111.8-70.1,136.4-56c26.2,15.1,36.4,76.1,19.9,156c-1.1,5.2-2.3,10.4-3.5,15.6
		c-32.5-7.5-67.7-13.1-104.7-16.5c-21.5-30.6-43.8-58.5-66.2-82.6C529.7,256.4,535.7,250.9,541.8,245.6z M339.8,539.5
		c7.1,13.7,14.5,27.2,22.2,40.5c7.9,13.6,16.1,27,24.6,40.2c-25.6-2.9-49.8-6.7-72.1-11.6C321.3,586.2,329.8,563.1,339.8,539.5z
		 M339.7,460.8c-9.7-23.1-18.1-45.8-24.9-67.7c22.3-5,46.2-9.1,71-12.2c-8.3,13-16.3,26.1-24,39.4
		C354.1,433.7,346.8,447.2,339.7,460.8z M357.5,500.1c10.3-21.4,21.4-42.5,33.3-63.1v0c11.9-20.6,24.5-40.8,37.9-60.4
		c23.3-1.8,47.1-2.7,71.3-2.7c24.2,0,48.1,0.9,71.4,2.7c13.3,19.6,25.9,39.7,37.7,60.2c11.9,20.6,23.2,41.5,33.7,62.8
		c-10.5,21.5-21.7,42.6-33.6,63.4h0c-11.9,20.6-24.4,40.8-37.5,60.6c-23.2,1.7-47.2,2.5-71.7,2.5c-24.4,0-48-0.8-70.9-2.2
		c-13.5-19.7-26.3-40-38.3-60.7C379,542.6,367.8,521.6,357.5,500.1z M638.2,579.7c7.9-13.7,15.4-27.5,22.7-41.5
		c10.5,23.8,19.3,46.9,26.3,68.9c-22.7,5.2-47.2,9.4-73,12.4C622.4,606.4,630.4,593.2,638.2,579.7z M660.6,460.8
		c-7.2-13.7-14.7-27.3-22.5-40.7c-7.7-13.2-15.6-26.3-23.8-39.1c25,3.2,48.9,7.3,71.4,12.5C678.9,415.1,670.5,437.7,660.6,460.8z
		 M500.4,286c15.4,16.7,30.9,35.4,46.1,55.6c-30.8-1.5-61.7-1.5-92.5,0C469.1,321.5,484.7,302.9,500.4,286z M320.1,190.6
		c26.2-15.2,84.1,6.5,145.1,60.6c3.9,3.5,7.8,7.1,11.7,10.8c-22.7,24.4-45.2,52.2-66.7,82.5c-36.8,3.4-72.1,8.9-104.4,16.2
		c-2-8-3.8-16-5.4-24.1C285.7,261.6,295.5,204.9,320.1,190.6z M281.9,600.4c-6.5-1.9-12.9-3.9-19.3-6c-38.2-13-69.7-30-91.3-48.5
		c-19.4-16.6-29.2-33.1-29.2-46.5c0-28.5,42.5-64.9,113.4-89.6c8.9-3.1,17.9-5.9,26.9-8.5c9.8,31.9,22.6,65.2,38.2,98.9
		C304.8,534.3,291.8,568.2,281.9,600.4z M463.1,752.8c-30.4,26.5-60.8,45.4-87.6,54.9h0c-24.1,8.5-43.3,8.8-54.9,2.1
		c-24.7-14.2-35-69.2-21-142.9c1.7-8.7,3.6-17.4,5.7-26c32.1,7.1,67.5,12.2,105.5,15.3c21.7,30.5,44.3,58.5,67.2,83
		C473.2,743.8,468.2,748.4,463.1,752.8z M501.3,715c-15.8-17.1-31.7-36-47.1-56.4c15,0.6,30.3,0.9,45.8,0.9c16,0,31.7-0.4,47.3-1
		C532,679.2,516.6,698.2,501.3,715z M704.3,761.6c-4.7,25.1-14,41.9-25.6,48.6c-24.7,14.3-77.4-4.3-134.3-53.2
		c-6.5-5.6-13.1-11.6-19.7-17.9c22.1-24.1,44.1-52.2,65.6-83.3c37.8-3.4,73.6-8.8,106-16.3c1.6,6.4,3,12.8,4.2,18.9
		C708.4,697.8,709.5,733.6,704.3,761.6z M732.7,594.6L732.7,594.6c-4.3,1.4-8.7,2.8-13.1,4.1c-9.9-31.4-23.3-64.7-39.6-99.2
		c15.6-33.6,28.5-66.6,38.1-97.7c8,2.3,15.8,4.8,23.3,7.3c72.4,24.9,116.6,61.8,116.6,90.2C857.9,529.6,810.2,568.9,732.7,594.6z
		 M500,569.2c38.6,0,69.9-31.3,69.9-69.9c0-38.6-31.3-69.9-69.9-69.9c-38.6,0-69.9,31.3-69.9,69.9
		C430.1,537.9,461.4,569.2,500,569.2z M500,429.4c-38.6,0-69.9,31.3-69.9,69.9c0,38.6,31.3,69.9,69.9,69.9
		c38.6,0,69.9-31.3,69.9-69.9C569.9,460.7,538.6,429.4,500,429.4z M500,429.4c-38.6,0-69.9,31.3-69.9,69.9
		c0,38.6,31.3,69.9,69.9,69.9c38.6,0,69.9-31.3,69.9-69.9C569.9,460.7,538.6,429.4,500,429.4z M500,429.4
		c-38.6,0-69.9,31.3-69.9,69.9c0,38.6,31.3,69.9,69.9,69.9c38.6,0,69.9-31.3,69.9-69.9C569.9,460.7,538.6,429.4,500,429.4z
		 M500,429.4c-38.6,0-69.9,31.3-69.9,69.9c0,38.6,31.3,69.9,69.9,69.9c38.6,0,69.9-31.3,69.9-69.9
		C569.9,460.7,538.6,429.4,500,429.4z M500,429.4c-38.6,0-69.9,31.3-69.9,69.9c0,38.6,31.3,69.9,69.9,69.9
		c38.6,0,69.9-31.3,69.9-69.9C569.9,460.7,538.6,429.4,500,429.4z M500,429.4c-38.6,0-69.9,31.3-69.9,69.9
		c0,38.6,31.3,69.9,69.9,69.9c38.6,0,69.9-31.3,69.9-69.9C569.9,460.7,538.6,429.4,500,429.4z M500,429.4
		c-38.6,0-69.9,31.3-69.9,69.9c0,38.6,31.3,69.9,69.9,69.9c38.6,0,69.9-31.3,69.9-69.9C569.9,460.7,538.6,429.4,500,429.4z
		 M500,429.4c-38.6,0-69.9,31.3-69.9,69.9c0,38.6,31.3,69.9,69.9,69.9c38.6,0,69.9-31.3,69.9-69.9
		C569.9,460.7,538.6,429.4,500,429.4z M500,429.4c-38.6,0-69.9,31.3-69.9,69.9c0,38.6,31.3,69.9,69.9,69.9
		c38.6,0,69.9-31.3,69.9-69.9C569.9,460.7,538.6,429.4,500,429.4z M500,429.4c-38.6,0-69.9,31.3-69.9,69.9
		c0,38.6,31.3,69.9,69.9,69.9c38.6,0,69.9-31.3,69.9-69.9C569.9,460.7,538.6,429.4,500,429.4z"/>
	<path class="st1" d="M500,429.4c-38.6,0-69.9,31.3-69.9,69.9c0,38.6,31.3,69.9,69.9,69.9c38.6,0,69.9-31.3,69.9-69.9
		C569.9,460.7,538.6,429.4,500,429.4z M500,429.4c-38.6,0-69.9,31.3-69.9,69.9c0,38.6,31.3,69.9,69.9,69.9
		c38.6,0,69.9-31.3,69.9-69.9C569.9,460.7,538.6,429.4,500,429.4z M500,429.4c-38.6,0-69.9,31.3-69.9,69.9
		c0,38.6,31.3,69.9,69.9,69.9c38.6,0,69.9-31.3,69.9-69.9C569.9,460.7,538.6,429.4,500,429.4z M500,429.4
		c-38.6,0-69.9,31.3-69.9,69.9c0,38.6,31.3,69.9,69.9,69.9c38.6,0,69.9-31.3,69.9-69.9C569.9,460.7,538.6,429.4,500,429.4z
		 M500,429.4c-38.6,0-69.9,31.3-69.9,69.9c0,38.6,31.3,69.9,69.9,69.9c38.6,0,69.9-31.3,69.9-69.9
		C569.9,460.7,538.6,429.4,500,429.4z M500,429.4c-38.6,0-69.9,31.3-69.9,69.9c0,38.6,31.3,69.9,69.9,69.9
		c38.6,0,69.9-31.3,69.9-69.9C569.9,460.7,538.6,429.4,500,429.4z M500,429.4c-38.6,0-69.9,31.3-69.9,69.9
		c0,38.6,31.3,69.9,69.9,69.9c38.6,0,69.9-31.3,69.9-69.9C569.9,460.7,538.6,429.4,500,429.4z M500,429.4
		c-38.6,0-69.9,31.3-69.9,69.9c0,38.6,31.3,69.9,69.9,69.9c38.6,0,69.9-31.3,69.9-69.9C569.9,460.7,538.6,429.4,500,429.4z
		 M500,429.4c-38.6,0-69.9,31.3-69.9,69.9c0,38.6,31.3,69.9,69.9,69.9c38.6,0,69.9-31.3,69.9-69.9
		C569.9,460.7,538.6,429.4,500,429.4z M500,429.4c-38.6,0-69.9,31.3-69.9,69.9c0,38.6,31.3,69.9,69.9,69.9
		c38.6,0,69.9-31.3,69.9-69.9C569.9,460.7,538.6,429.4,500,429.4z M500,429.4c-38.6,0-69.9,31.3-69.9,69.9
		c0,38.6,31.3,69.9,69.9,69.9c38.6,0,69.9-31.3,69.9-69.9C569.9,460.7,538.6,429.4,500,429.4z M500,429.4
		c-38.6,0-69.9,31.3-69.9,69.9c0,38.6,31.3,69.9,69.9,69.9c38.6,0,69.9-31.3,69.9-69.9C569.9,460.7,538.6,429.4,500,429.4z
		 M752.2,377.5c-8.3-2.9-16.7-5.5-25.2-7.9c1.4-5.7,2.7-11.4,3.9-17.2c19.1-92.6,6.6-167.2-36-191.7c-40.8-23.5-107.6,1-175.1,59.7
		c-6.6,5.8-13.1,11.8-19.5,17.9c-4.2-4.1-8.6-8.1-13-12c-70.7-62.8-141.5-89.2-184.1-64.6c-40.8,23.6-52.9,93.7-35.7,181.5
		c1.7,8.7,3.6,17.3,5.8,25.9c-10,2.8-19.7,5.9-29,9.1c-82.9,28.9-135.8,74.2-135.8,121.1c0,48.5,56.8,97.2,143.1,126.7
		c7,2.4,14.1,4.6,21.2,6.6c-2.3,9.3-4.4,18.6-6.1,27.9c-16.4,86.2-3.6,154.7,37.1,178.1c42,24.2,112.5-0.7,181.2-60.7
		c5.4-4.7,10.9-9.8,16.3-15.1c6.9,6.6,13.9,13.1,21.2,19.3c66.5,57.2,132.2,80.4,172.9,56.8c42-24.3,55.6-97.8,37.9-187.3
		c-1.4-6.8-2.9-13.8-4.7-20.9c5-1.5,9.8-3,14.6-4.5c89.7-29.7,148.1-77.8,148.1-126.9C891.4,452.2,836.7,406.6,752.2,377.5z
		 M541.8,245.6c57.8-50.3,111.8-70.1,136.4-56c26.2,15.1,36.4,76.1,19.9,156c-1.1,5.2-2.3,10.4-3.5,15.6
		c-32.5-7.5-67.7-13.1-104.7-16.5c-21.5-30.6-43.8-58.5-66.2-82.6C529.7,256.4,535.7,250.9,541.8,245.6z M339.8,539.5
		c7.1,13.7,14.5,27.2,22.2,40.5c7.9,13.6,16.1,27,24.6,40.2c-25.6-2.9-49.8-6.7-72.1-11.6C321.3,586.2,329.8,563.1,339.8,539.5z
		 M339.7,460.8c-9.7-23.1-18.1-45.8-24.9-67.7c22.3-5,46.2-9.1,71-12.2c-8.3,13-16.3,26.1-24,39.4
		C354.1,433.7,346.8,447.2,339.7,460.8z M357.5,500.1c10.3-21.4,21.4-42.5,33.3-63.1v0c11.9-20.6,24.5-40.8,37.9-60.4
		c23.3-1.8,47.1-2.7,71.3-2.7c24.2,0,48.1,0.9,71.4,2.7c13.3,19.6,25.9,39.7,37.7,60.2c11.9,20.6,23.2,41.5,33.7,62.8
		c-10.5,21.5-21.7,42.6-33.6,63.4h0c-11.9,20.6-24.4,40.8-37.5,60.6c-23.2,1.7-47.2,2.5-71.7,2.5c-24.4,0-48-0.8-70.9-2.2
		c-13.5-19.7-26.3-40-38.3-60.7C379,542.6,367.8,521.6,357.5,500.1z M638.2,579.7c7.9-13.7,15.4-27.5,22.7-41.5
		c10.5,23.8,19.3,46.9,26.3,68.9c-22.7,5.2-47.2,9.4-73,12.4C622.4,606.4,630.4,593.2,638.2,579.7z M660.6,460.8
		c-7.2-13.7-14.7-27.3-22.5-40.7c-7.7-13.2-15.6-26.3-23.8-39.1c25,3.2,48.9,7.3,71.4,12.5C678.9,415.1,670.5,437.7,660.6,460.8z
		 M500.4,286c15.4,16.7,30.9,35.4,46.1,55.6c-30.8-1.5-61.7-1.5-92.5,0C469.1,321.5,484.7,302.9,500.4,286z M320.1,190.6
		c26.2-15.2,84.1,6.5,145.1,60.6c3.9,3.5,7.8,7.1,11.7,10.8c-22.7,24.4-45.2,52.2-66.7,82.5c-36.8,3.4-72.1,8.9-104.4,16.2
		c-2-8-3.8-16-5.4-24.1C285.7,261.6,295.5,204.9,320.1,190.6z M281.9,600.4c-6.5-1.9-12.9-3.9-19.3-6c-38.2-13-69.7-30-91.3-48.5
		c-19.4-16.6-29.2-33.1-29.2-46.5c0-28.5,42.5-64.9,113.4-89.6c8.9-3.1,17.9-5.9,26.9-8.5c9.8,31.9,22.6,65.2,38.2,98.9
		C304.8,534.3,291.8,568.2,281.9,600.4z M463.1,752.8c-30.4,26.5-60.8,45.4-87.6,54.9h0c-24.1,8.5-43.3,8.8-54.9,2.1
		c-24.7-14.2-35-69.2-21-142.9c1.7-8.7,3.6-17.4,5.7-26c32.1,7.1,67.5,12.2,105.5,15.3c21.7,30.5,44.3,58.5,67.2,83
		C473.2,743.8,468.2,748.4,463.1,752.8z M501.3,715c-15.8-17.1-31.7-36-47.1-56.4c15,0.6,30.3,0.9,45.8,0.9c16,0,31.7-0.4,47.3-1
		C532,679.2,516.6,698.2,501.3,715z M704.3,761.6c-4.7,25.1-14,41.9-25.6,48.6c-24.7,14.3-77.4-4.3-134.3-53.2
		c-6.5-5.6-13.1-11.6-19.7-17.9c22.1-24.1,44.1-52.2,65.6-83.3c37.8-3.4,73.6-8.8,106-16.3c1.6,6.4,3,12.8,4.2,18.9
		C708.4,697.8,709.5,733.6,704.3,761.6z M732.7,594.6L732.7,594.6c-4.3,1.4-8.7,2.8-13.1,4.1c-9.9-31.4-23.3-64.7-39.6-99.2
		c15.6-33.6,28.5-66.6,38.1-97.7c8,2.3,15.8,4.8,23.3,7.3c72.4,24.9,116.6,61.8,116.6,90.2C857.9,529.6,810.2,568.9,732.7,594.6z
		 M500,569.2c38.6,0,69.9-31.3,69.9-69.9c0-38.6-31.3-69.9-69.9-69.9c-38.6,0-69.9,31.3-69.9,69.9
		C430.1,537.9,461.4,569.2,500,569.2z M500,429.4c-38.6,0-69.9,31.3-69.9,69.9c0,38.6,31.3,69.9,69.9,69.9
		c38.6,0,69.9-31.3,69.9-69.9C569.9,460.7,538.6,429.4,500,429.4z M500,429.4c-38.6,0-69.9,31.3-69.9,69.9
		c0,38.6,31.3,69.9,69.9,69.9c38.6,0,69.9-31.3,69.9-69.9C569.9,460.7,538.6,429.4,500,429.4z M500,429.4
		c-38.6,0-69.9,31.3-69.9,69.9c0,38.6,31.3,69.9,69.9,69.9c38.6,0,69.9-31.3,69.9-69.9C569.9,460.7,538.6,429.4,500,429.4z
		 M500,429.4c-38.6,0-69.9,31.3-69.9,69.9c0,38.6,31.3,69.9,69.9,69.9c38.6,0,69.9-31.3,69.9-69.9
		C569.9,460.7,538.6,429.4,500,429.4z M500,429.4c-38.6,0-69.9,31.3-69.9,69.9c0,38.6,31.3,69.9,69.9,69.9
		c38.6,0,69.9-31.3,69.9-69.9C569.9,460.7,538.6,429.4,500,429.4z M500,429.4c-38.6,0-69.9,31.3-69.9,69.9
		c0,38.6,31.3,69.9,69.9,69.9c38.6,0,69.9-31.3,69.9-69.9C569.9,460.7,538.6,429.4,500,429.4z M500,429.4
		c-38.6,0-69.9,31.3-69.9,69.9c0,38.6,31.3,69.9,69.9,69.9c38.6,0,69.9-31.3,69.9-69.9C569.9,460.7,538.6,429.4,500,429.4z
		 M500,429.4c-38.6,0-69.9,31.3-69.9,69.9c0,38.6,31.3,69.9,69.9,69.9c38.6,0,69.9-31.3,69.9-69.9
		C569.9,460.7,538.6,429.4,500,429.4z M500,429.4c-38.6,0-69.9,31.3-69.9,69.9c0,38.6,31.3,69.9,69.9,69.9
		c38.6,0,69.9-31.3,69.9-69.9C569.9,460.7,538.6,429.4,500,429.4z M500,429.4c-38.6,0-69.9,31.3-69.9,69.9
		c0,38.6,31.3,69.9,69.9,69.9c38.6,0,69.9-31.3,69.9-69.9C569.9,460.7,538.6,429.4,500,429.4z"/>
	<path class="st0" d="M500,429.4c-38.6,0-69.9,31.3-69.9,69.9c0,38.6,31.3,69.9,69.9,69.9c38.6,0,69.9-31.3,69.9-69.9
		C569.9,460.7,538.6,429.4,500,429.4z"/>
	<path class="st1" d="M569.9,499.3c0,38.6-31.3,69.9-69.9,69.9c-38.6,0-69.9-31.3-69.9-69.9c0-38.6,31.3-69.9,69.9-69.9
		C538.6,429.4,569.9,460.7,569.9,499.3z"/>
</g>
</svg>
