<svg id="Layer_1" data-name="Layer 1" xmlns="http://www.w3.org/2000/svg" viewBox="0 0 280 300"><defs><style>.cls-1{fill:#2479bf;}.cls-2{fill:#fff;}</style></defs><title>TYPE SCRIPT LOGO</title><path class="cls-1" d="M59.05,150V69.05H221V231H59.05"/><path class="cls-2" d="M94.55,150.28v6.6h21v59.9h14.94v-59.9h21.05V150.4a47.91,47.91,0,0,0-.17-6.67c0-.13-12.83-.17-28.41-.17l-28.33.13v6.63l-.12,0Zm94.59-6.76a19.72,19.72,0,0,1,10.12,5.79c1.49,1.62,3.72,4.45,3.88,5.18,0,.25-7,5-11.25,7.61-.16.12-.81-.56-1.46-1.62-2.1-3-4.25-4.29-7.61-4.53-4.85-.32-8.09,2.23-8.09,6.48a6.33,6.33,0,0,0,.73,3.07c1.09,2.23,3.11,3.56,9.39,6.32,11.57,5,16.59,8.25,19.63,13,3.44,5.26,4.21,13.52,1.9,19.71-2.59,6.76-8.91,11.33-17.93,12.83a50.13,50.13,0,0,1-12.35-.12c-6.47-1.22-12.66-4.45-16.47-8.62-1.5-1.62-4.37-5.95-4.21-6.24l1.54-1,6.07-3.52,4.57-2.67,1.06,1.42a22,22,0,0,0,6.07,5.91c5.26,2.71,12.3,2.34,15.78-.81a6.08,6.08,0,0,0,2.15-4.86,6.21,6.21,0,0,0-1.22-4.13c-1.29-1.78-3.88-3.24-11.17-6.47-8.38-3.57-11.94-5.83-15.26-9.31a23.12,23.12,0,0,1-4.45-8.1,30.82,30.82,0,0,1-.24-10.4c1.74-8.1,7.85-13.76,16.59-15.38a39.11,39.11,0,0,1,12.31.4l-.08.08Z"/></svg>