<svg width="31" height="30" viewBox="0 0 31 30" fill="none" xmlns="http://www.w3.org/2000/svg">
<path d="M23.4728 0H8.47284V2.30769H23.4728V0Z" fill="#010500"/>
<path d="M3.47284 20.7692L3.47284 6.9231H0.972839L0.972839 20.7692H3.47284Z" fill="#010500"/>
<path d="M30.9728 20.7692V6.9231H28.4728V20.7692H30.9728Z" fill="#010500"/>
<path d="M8.47284 2.30774H5.97284V4.61543H8.47284V2.30774Z" fill="#010500"/>
<path d="M5.97284 4.61536H3.47284V6.92305H5.97284V4.61536Z" fill="#010500"/>
<path d="M23.4728 4.61536H25.9728V2.30766L23.4728 2.30766V4.61536Z" fill="#010500"/>
<path d="M25.9728 6.9231H28.4728V4.6154H25.9728V6.9231Z" fill="#010500"/>
<path d="M10.9728 27.6923H23.4728V25.3846H10.9728V27.6923Z" fill="#010500"/>
<path d="M23.4728 25.3846H25.9728V23.077H23.4728V25.3846Z" fill="#010500"/>
<path d="M25.9728 23.0769H28.4728V20.7692H25.9728V23.0769Z" fill="#010500"/>
<path d="M5.97284 27.6924V20.7693H3.47284V30.0001H8.47284V27.6924H5.97284Z" fill="#010500"/>
<path d="M10.9728 25.3846H8.47284V27.6923H10.9728V25.3846Z" fill="#010500"/>
<path d="M8.47284 6.9231V13.8462H10.9728V11.5385H13.4728V6.9231H8.47284Z" fill="#010500"/>
<path d="M13.4728 13.8462H10.9728V16.1539H13.4728V13.8462Z" fill="#010500"/>
<path d="M15.9728 16.1538H13.4728V18.4615H15.9728V16.1538Z" fill="#010500"/>
<path d="M18.4728 16.1538V18.4615H15.9728V20.7692H23.4728V16.1538H18.4728Z" fill="#010500"/>
</svg>
