<svg width="33" height="26" viewBox="0 0 33 26" fill="none" xmlns="http://www.w3.org/2000/svg">
<path d="M5.89592 0.692261V3.1538H28.0498V0.692261H5.89592ZM28.0498 3.1538V5.61534H30.5113V3.1538H28.0498ZM30.5113 5.61534V20.3846H32.9728V5.61534H30.5113ZM30.5113 20.3846H28.0498V22.8461H30.5113V20.3846ZM28.0498 22.8461H5.89592V25.3076H28.0498V22.8461ZM5.89592 22.8461V20.3846H3.43438V22.8461H5.89592ZM3.43438 20.3846V5.61534H0.972839V20.3846H3.43438ZM3.43438 5.61534H5.89592V3.1538H3.43438V5.61534ZM13.2805 8.07688V17.923H15.7421V16.6923H18.2036V15.4615H20.6651V14.2307H23.1267V11.7692H20.6651V10.5384H18.2036V9.30765H15.7421V8.07688H13.2805Z" fill="#010500"/>
</svg>
