<?xml version="1.0" encoding="UTF-8"?>
<svg id="Layer_2" data-name="Layer 2" xmlns="http://www.w3.org/2000/svg" viewBox="0 0 596.68 628.09">
  <defs>
    <style>
      .cls-1 {
        fill: #020202;
      }
    </style>
  </defs>
  <g id="Layer_1-2" data-name="Layer 1">
    <g>
      <rect class="cls-1" x="251.23" y="596.69" width="125.62" height="31.4"/>
      <rect class="cls-1" x="219.83" y="565.28" width="31.4" height="31.41"/>
      <rect class="cls-1" x="376.85" y="565.28" width="31.4" height="31.41"/>
      <rect class="cls-1" x="408.25" y="533.88" width="62.81" height="31.4"/>
      <rect class="cls-1" x="157.02" y="533.88" width="62.81" height="31.4"/>
      <rect class="cls-1" x="471.06" y="471.07" width="31.4" height="62.81"/>
      <rect class="cls-1" x="125.61" y="471.07" width="31.41" height="62.81"/>
      <polygon class="cls-1" points="408.25 0 408.25 62.81 376.85 62.81 376.85 94.22 408.25 94.22 408.25 125.62 345.45 125.62 345.45 62.81 282.64 62.81 282.64 125.62 219.83 125.62 219.83 94.22 251.23 94.22 251.23 62.81 219.83 62.81 219.83 0 251.23 0 251.23 31.41 376.85 31.41 376.85 0 408.25 0"/>
      <rect class="cls-1" x="565.27" y="94.22" width="31.41" height="31.4"/>
      <rect class="cls-1" x="533.87" y="125.62" width="31.4" height="31.41"/>
      <polygon class="cls-1" points="596.68 345.45 596.68 408.26 565.27 408.26 565.27 376.86 533.87 376.86 533.87 408.26 565.27 408.26 565.27 439.66 596.68 439.66 596.68 502.47 565.27 502.47 565.27 471.07 502.46 471.07 502.46 251.24 533.87 251.24 533.87 314.05 565.27 314.05 565.27 345.45 596.68 345.45"/>
      <rect class="cls-1" x="62.81" y="125.62" width="31.4" height="31.41"/>
      <rect class="cls-1" x="31.4" y="94.22" width="31.41" height="31.4"/>
      <rect class="cls-1" y="62.81" width="31.4" height="31.41"/>
      <polygon class="cls-1" points="533.87 157.03 533.87 219.84 502.46 219.84 502.46 251.24 471.06 251.24 471.06 219.84 376.85 219.84 376.85 251.24 251.23 251.24 251.23 219.84 157.02 219.84 157.02 251.24 125.61 251.24 125.61 219.84 94.21 219.84 94.21 157.03 125.61 157.03 125.61 188.43 157.02 188.43 157.02 125.62 219.83 125.62 219.83 157.03 188.42 157.03 188.42 188.43 282.64 188.43 282.64 219.84 345.45 219.84 345.45 188.43 439.66 188.43 439.66 157.03 408.25 157.03 408.25 125.62 471.06 125.62 471.06 188.43 502.46 188.43 502.46 157.03 533.87 157.03"/>
      <polygon class="cls-1" points="125.61 251.24 125.61 471.07 62.81 471.07 62.81 502.47 31.4 502.47 31.4 439.66 62.81 439.66 62.81 408.26 94.21 408.26 94.21 376.86 62.81 376.86 62.81 408.26 31.4 408.26 31.4 345.45 62.81 345.45 62.81 314.05 94.21 314.05 94.21 251.24 125.61 251.24"/>
    </g>
  </g>
</svg>