<svg id="Layer_1" data-name="Layer 1" xmlns="http://www.w3.org/2000/svg" viewBox="0 0 280 300"><defs><style>.cls-1{fill:#e6a329;}.cls-2{fill:#f1bf22;}.cls-3{fill:#fff;}.cls-4{fill:#ebebeb;}.cls-5{fill:#231f20;}</style></defs><title>JAVASCRIPT Logo</title><polygon class="cls-1" points="200.1 98.56 140 98.56 140 98.56 79.9 98.56 91.16 220.76 140 234.6 140 234.6 140 234.6 140 234.6 140 234.6 188.82 220.76 200.1 98.56"/><polygon class="cls-2" points="140 108.52 140 224.25 140 224.25 179.55 213.04 189.18 108.52 140 108.52"/><polygon class="cls-3" points="171.47 123.51 110.64 123.51 106.41 169.26 106.5 168.97 158.17 168.97 156.48 188.33 140 193.08 123.27 188.26 122.26 176.54 107.07 176.54 109.24 199.95 140 208.69 170.76 199.95 174.99 154.02 120.16 154.02 120.86 138.7 158.92 138.7 159.48 147.47 174.81 147.47 171.47 123.51"/><path class="cls-4" d="M140,123.51H110.63l-4.22,45.75.09-.28H140V154H122.28l.7-15.32h17Zm-17.74,53H107.07L109.24,200,140,208.67V193.08l-16.73-4.82Z"/><polygon class="cls-5" points="128.3 80.54 117.61 80.54 117.61 88.21 128.3 88.21 134.03 88.21 135.96 88.21 135.96 65.4 128.3 65.4 128.3 80.54"/><path class="cls-5" d="M162.39,65.51H143.74v8c2.49,2.5,3.8,3.69,7.41,7.3h-7.41v7.28h18.65V80.81l-7.45-7.31h7.45Z"/></svg>