<?xml version="1.0" encoding="UTF-8"?>
<svg id="Layer_2" data-name="Layer 2" xmlns="http://www.w3.org/2000/svg" viewBox="0 0 51.06 46.98">
  <defs>
    <style>
      .cls-1 {
        fill: #020202;
      }
    </style>
  </defs>
  <g id="Layer_1-2" data-name="Layer 1">
    <path class="cls-1" d="m49.02,18.39v-2.05h-14.3v-2.04h-2.04v-4.08h-2.05v-4.09h-2.04V2.05h-2.04V0h-2.04v2.05h-2.05v4.08h-2.04v4.09h-2.04v4.08h-2.04v2.04H2.04v2.05H0v2.04h2.04v2.04h4.08v2.04h4.09v2.05h4.08v4.08h-2.04v4.09h-2.04v4.08h-2.04v8.17h6.12v-2.04h4.09v-2.04h4.08v-2.05h6.13v2.05h4.09v2.04h4.08v2.04h6.13v-8.17h-2.04v-4.08h-2.05v-4.09h-2.04v-4.08h4.09v-2.05h4.08v-2.04h4.09v-2.04h2.04v-2.04h-2.04Zm-2.05,2.04h-4.08v2.04h-4.09v2.04h-4.08v8.17h2.04v4.09h2.04v4.08h2.05v4.09h-2.05v-2.04h-4.08v-2.05h-4.09v-2.04h-4.08v-2.04h-2.04v2.04h-4.09v2.04h-4.08v2.05h-4.09v2.04h-2.04v-4.09h2.04v-4.08h2.04v-4.09h2.05v-8.17h-4.09v-2.04h-4.08v-2.04h-4.09v-2.04h14.3v-2.05h2.04v-4.08h2.04v-4.09h2.05v-4.08h2.04v4.08h2.04v4.09h2.04v4.08h2.05v2.05h14.29v2.04Z"/>
  </g>
</svg>