<svg width="39" height="39" viewBox="0 0 39 39" fill="none" xmlns="http://www.w3.org/2000/svg">
<rect x="11.8091" y="1.99976" width="13.8104" height="1.84139" fill="#010500"/>
<rect x="13.3804" y="35.1589" width="13.8104" height="1.84139" fill="#010500"/>
<rect x="8.11133" y="3.76917" width="3.68278" height="1.84139" fill="#010500"/>
<rect x="27.333" y="33.3255" width="3.68278" height="1.84139" fill="#010500"/>
<rect x="25.605" y="3.91258" width="3.68278" height="1.84139" fill="#010500"/>
<rect x="29.2729" y="5.78452" width="3.68278" height="1.84139" fill="#010500"/>
<rect x="6.25684" y="5.5881" width="1.84139" height="1.84139" fill="#010500"/>
<rect x="34.7285" y="27.7938" width="1.84139" height="1.84139" fill="#010500"/>
<rect x="32.9407" y="7.64838" width="1.84139" height="1.84139" fill="#010500"/>
<rect x="34.7654" y="9.50476" width="1.84139" height="1.84139" fill="#010500"/>
<rect x="36.5325" y="11.3606" width="1.84139" height="16.5725" fill="#010500"/>
<rect x="4.3999" y="7.41454" width="1.84139" height="1.84139" fill="#010500"/>
<rect x="32.8716" y="29.6202" width="1.84139" height="1.84139" fill="#010500"/>
<rect x="2.54272" y="9.24039" width="1.84139" height="1.84139" fill="#010500"/>
<rect x="31.0168" y="31.4461" width="1.84139" height="1.84139" fill="#010500"/>
<rect x="2.39087" y="27.6539" width="1.84139" height="1.84139" fill="#010500"/>
<rect x="4.21777" y="29.5102" width="1.84139" height="1.84139" fill="#010500"/>
<rect x="6.04468" y="31.3741" width="3.68278" height="1.84139" fill="#010500"/>
<rect x="9.71265" y="33.246" width="3.68278" height="1.84139" fill="#010500"/>
<rect x="0.625977" y="11.0668" width="1.84139" height="16.5725" fill="#010500"/>
<rect x="11.2424" y="13.6017" width="16.5145" height="1.84139" fill="#010500"/>
<rect x="11.2424" y="18.3201" width="16.5145" height="1.84139" fill="#010500"/>
<rect x="11.2424" y="23.0385" width="16.5145" height="1.84018" fill="#010500"/>
</svg>
