<svg width="47" height="54" viewBox="0 0 47 54" fill="none" xmlns="http://www.w3.org/2000/svg">
<path d="M38.0122 48.0941L23.511 51.9998L9.00988 48.0941L5.66495 11.8477H41.3571L38.0122 48.0941Z" fill="#010500"/>
<path d="M23.5107 14.7803V48.887L23.5429 48.8935L35.2791 45.7354L37.986 14.7803H23.5107Z" fill="#AFB4AE"/>
<path d="M15.2797 6.51792V4.3653H18.4312V2H12.9208V8.67698H18.4312V6.51792H15.2797Z" fill="#010500"/>
<path d="M24.0909 4.3652H26.2887V2.00635H20.7782C20.7782 2.00635 20.7782 3.19222 20.7782 4.3652C21.513 5.09993 21.8997 5.4544 22.9631 6.52427C22.3379 6.52427 20.7782 6.52427 20.7782 6.52427V8.67688H26.2887V6.52427L24.0909 4.3652Z" fill="#010500"/>
<path d="M31.9015 4.3652H34.0992V2.00635H28.5888C28.5888 2.00635 28.5888 3.19222 28.5888 4.3652C29.3235 5.09993 29.7102 5.4544 30.7736 6.52427C30.1485 6.52427 28.5888 6.52427 28.5888 6.52427V8.67688H34.0992V6.52427L31.9015 4.3652Z" fill="#010500"/>
<path d="M23.4964 23.8483L13.12 28.1664L13.4616 32.4459L23.4964 28.1535L34.1693 23.5905L34.614 19.2144L23.4964 23.8483Z" fill="#F8FCF7"/>
<path d="M13.12 28.1663L13.4616 32.4457L23.4964 28.1534V23.8481L13.12 28.1663Z" fill="#F8FCF7"/>
<path d="M34.6145 19.2144L23.497 23.8483V28.1535L34.1698 23.5905L34.6145 19.2144Z" fill="#F8FCF7"/>
<path d="M13.1357 28.1665L13.4837 32.446L28.8742 32.4975L28.5327 38.2013L23.4669 39.6256L18.5945 38.4011L18.2981 34.8564H13.7737L14.3666 41.6945L23.5185 44.4014L32.6123 41.7396L33.7982 28.1665H13.1357Z" fill="#F8FCF7"/>
<g opacity="0.05">
<path d="M23.4964 28.1665H13.12L13.4616 32.446L23.4964 32.4782V28.1665Z" fill="#010500"/>
<path d="M23.497 39.6128L23.4455 39.6257L18.5795 38.4012L18.2831 34.8564H13.7587L14.3452 41.6945L23.497 44.4014V39.6128Z" fill="#010500"/>
</g>
<path d="M12.1864 19.2144H34.6149L34.1702 23.5905H12.7278L12.1864 19.2144Z" fill="#F8FCF7"/>
<path opacity="0.05" d="M23.4973 19.2144H12.1864L12.7278 23.5905H23.4973V19.2144Z" fill="#010500"/>
</svg>
