<svg width="80" height="38" viewBox="0 0 80 38" fill="none" xmlns="http://www.w3.org/2000/svg">
<g clip-path="url(#clip0_925_3231)">
<path d="M42.0776 9.60082V28.3909H37.4027V9.60082H42.0776ZM53.6826 9C59.2628 9 63.7649 13.3374 63.7649 18.9506C63.7649 24.5967 59.2299 29 53.6085 29C47.9871 29 43.4603 24.6296 43.4603 19.0165C43.4933 13.4033 48.1023 9 53.6826 9ZM53.6496 24.4321C56.6044 24.4321 58.7937 21.8807 58.7937 18.9835C58.7937 16.0864 56.6044 13.5679 53.6496 13.5679C50.6949 13.5679 48.5056 16.0864 48.5056 18.9835C48.5056 21.8807 50.6867 24.4321 53.6496 24.4321ZM64.2998 22.6872L68.5714 21.6749C68.876 23.93 70.5221 24.7366 72.234 24.7366C73.9459 24.7366 74.555 23.7243 74.555 22.9177C74.555 22.2757 74.1846 21.642 72.9418 21.4033L70.3163 20.893C67.1887 20.284 64.9747 18.3416 64.9747 15.3128C64.9747 11.7161 68.234 9.19753 71.9706 9.19753C76.7443 9.19753 78.6949 12.1523 79.0324 14.679L74.8924 15.8971C74.6538 14.3498 73.7155 13.2387 72.0035 13.2387C70.5221 13.2387 69.8225 14.2099 69.8225 14.9753C69.8225 15.6173 70.127 16.3169 71.2381 16.5226L73.9624 17.0247C77.5262 17.7325 79.4768 19.8807 79.4768 22.7037C79.4768 25.7654 76.8184 28.7202 72.2834 28.7202C67.4768 28.7531 64.9583 26.2675 64.3163 22.6708L64.2998 22.6872Z" fill="#F8FCF7"/>
<path d="M5.36949 28.3661H0.357147L8.62875 9.60889H13.674L5.36949 28.3661Z" fill="#AFB4AE"/>
<path d="M16.9668 28.3661H23.2548L27.189 22.4154L31.0902 28.3661H36.2343L30.012 18.7858L36.2754 9.57593H30.5635L27.2055 15.1562L23.9462 9.57593H18.1684L24.4565 18.7858L20.3906 24.7364L13.6993 9.60885H8.65402L16.9668 28.3661Z" fill="#F8FCF7"/>
<path d="M42.0769 9.60082V28.3909H37.402V9.60082H42.0769ZM53.6818 9C59.2621 9 63.7641 13.3374 63.7641 18.9506C63.7641 24.5967 59.2291 29 53.6077 29C47.9863 29 43.4596 24.6296 43.4596 19.0165C43.4925 13.4033 48.1016 9 53.6818 9ZM53.6407 24.4321C56.5954 24.4321 58.7847 21.8807 58.7847 18.9835C58.7847 16.0864 56.6036 13.5679 53.6407 13.5679C50.6777 13.5679 48.4966 16.0864 48.4966 18.9835C48.4966 21.8807 50.6859 24.4321 53.6407 24.4321ZM64.2991 22.6872L68.5707 21.6749C68.8752 23.93 70.5213 24.7366 72.2332 24.7366C73.9452 24.7366 74.5542 23.7243 74.5542 22.9177C74.5542 22.2757 74.1839 21.642 72.9411 21.4033L70.3156 20.893C67.188 20.284 64.974 18.3416 64.974 15.3128C64.974 11.7161 68.2332 9.19753 71.9699 9.19753C76.7435 9.19753 78.6941 12.1523 79.0316 14.679L74.8917 15.8971C74.653 14.3498 73.7147 13.2387 72.0028 13.2387C70.5213 13.2387 69.8217 14.2099 69.8217 14.9753C69.8217 15.6173 70.1262 16.3169 71.2374 16.5226L73.9616 17.0247C77.5254 17.7325 79.476 19.8807 79.476 22.7037C79.476 25.7654 76.8176 28.7202 72.2826 28.7202C67.476 28.7531 64.9575 26.2675 64.3155 22.6708L64.2991 22.6872ZM8.62831 9.60082H13.6736L20.3649 24.7284L24.4308 18.7778L18.1427 9.5679H23.9205L27.1798 15.1481L30.5378 9.5679H36.2497L29.9946 18.7778L36.2168 28.358H31.0728L27.1715 22.4074L23.2374 28.358H16.9493L11.2209 15.2305L8.62831 9.60082Z" fill="#010500"/>
<path d="M8.62831 9.60083L16.9658 28.358L15.0316 17.0988L8.62831 9.60083Z" fill="#010500"/>
</g>
<defs>
<clipPath id="clip0_925_3231">
<rect width="79.1197" height="38" fill="white" transform="translate(0.357147)"/>
</clipPath>
</defs>
</svg>
