<svg width="51" height="50" viewBox="0 0 51 50" fill="none" xmlns="http://www.w3.org/2000/svg">
<path d="M37.3518 18.125C38.9143 17.1875 40.0081 15.7812 40.6331 14.0625C41.2581 12.3438 41.258 10.625 40.7893 8.90625C40.3205 7.1875 39.2268 5.78125 37.8205 4.6875C36.4143 3.59375 34.5393 3.125 32.8206 3.125H18.4456C16.5706 3.125 14.8518 3.75 13.4456 4.6875C11.7268 5.78125 10.7893 7.34375 10.1643 8.90625C9.69555 10.625 9.69555 12.5 10.3206 14.0625C10.9456 15.7812 12.0393 17.1875 13.6018 18.125C12.5081 18.9063 11.4143 19.8438 10.7893 21.0938C10.1643 22.3438 9.8518 23.5938 9.8518 25C9.8518 26.4062 10.1643 27.6562 10.7893 28.9062C11.4143 30.1562 12.3518 31.0938 13.6018 31.875C12.0393 32.8125 10.9456 34.2188 10.3206 35.9375C9.69555 37.6562 9.69555 39.375 10.1643 41.0938C10.6331 42.8125 11.7268 44.2188 13.2893 45.3125C14.6956 46.4062 16.5706 46.875 18.2893 46.875C20.4768 46.875 22.6643 45.9375 24.3831 44.5312C25.9456 42.9688 26.883 40.9375 26.883 38.75V31.25C28.4455 32.6562 30.4768 33.4375 32.5081 33.4375H32.6643C34.5393 33.4375 36.258 32.8125 37.6643 31.875C39.0705 30.7812 40.1643 29.375 40.6331 27.6563C41.1018 25.9375 41.1018 24.2188 40.4768 22.5C40.0081 20.4688 38.7581 19.0625 37.3518 18.125ZM26.883 5.78125H32.6643C33.4456 5.78125 34.2268 5.78125 34.8518 6.09375C35.6331 6.40625 36.2581 6.71875 36.7268 7.34375C37.3518 7.8125 37.6643 8.4375 37.9768 9.21875C38.2893 10 38.4455 10.625 38.4455 11.4062C38.4455 12.1875 38.2893 12.9688 37.9768 13.5938C37.6643 14.2188 37.1956 14.8437 36.7268 15.4687C36.1018 15.9375 35.4768 16.4062 34.8518 16.7188C34.0706 17.0312 33.2893 17.0312 32.6643 17.0312H26.883V5.78125ZM18.2893 5.78125H24.0706V16.7188H18.2893C16.8831 16.7188 15.4768 16.0938 14.5393 15C13.4456 14.0625 12.9768 12.6562 12.9768 11.25C12.9768 9.84375 13.6018 8.4375 14.5393 7.5C15.4768 6.5625 16.8831 5.9375 18.2893 5.78125ZM12.6643 25C12.6643 23.5938 13.2893 22.1875 14.3831 21.0938C15.4768 20 16.8831 19.5312 18.4456 19.5312H24.2268V30.4688H18.4456C16.8831 30.4688 15.4768 29.8438 14.3831 28.9062C13.2893 27.8125 12.6643 26.4062 12.6643 25ZM24.0706 38.5938C24.0706 40.1562 23.4455 41.5625 22.3518 42.5C21.258 43.5938 19.8518 44.0625 18.2893 44.0625C17.5081 44.0625 16.7268 44.0625 16.1018 43.75C15.3206 43.4375 14.6956 43.125 14.2268 42.6562C13.6018 42.1875 13.2893 41.5625 12.9768 40.7812C12.6643 40.1562 12.5081 39.375 12.5081 38.5938C12.5081 37.8125 12.6643 37.0312 12.9768 36.4062C13.2893 35.7812 13.7581 35.1562 14.2268 34.5312C14.8518 34.0625 15.4768 33.5937 16.1018 33.2812C16.8831 32.9687 17.6643 32.9688 18.2893 32.9688H24.0706V38.5938ZM32.6643 30.4688H32.5081C31.1018 30.4688 29.6956 29.8438 28.7581 28.75C27.8206 27.6562 27.1956 26.4062 27.1956 25C27.1956 23.5938 27.8206 22.1875 28.7581 21.25C29.6956 20.1562 31.1018 19.6875 32.5081 19.5312H32.6643C33.4456 19.5312 34.2268 19.5312 34.8518 19.8438C35.6331 20.1562 36.2581 20.4688 36.7268 21.0938C37.3518 21.5625 37.6643 22.1875 37.9768 22.9688C38.2893 23.5938 38.4455 24.375 38.4455 25.1562C38.4455 25.9375 38.2893 26.7188 37.9768 27.3438C37.6643 27.9688 37.1956 28.5938 36.7268 29.2188C36.1018 29.6875 35.4768 30.1562 34.8518 30.4688H32.6643Z" fill="#010500"/>
</svg>
