<svg width="66" height="44" viewBox="0 0 66 44" fill="none" xmlns="http://www.w3.org/2000/svg">
<g clip-path="url(#clip0_925_3266)">
<path d="M32.304 41.9997C32.0914 41.9969 31.8828 41.9416 31.6967 41.8387L29.7323 40.6728C29.4286 40.5089 29.5865 40.4512 29.6746 40.4208C29.9865 40.3284 30.2847 40.1946 30.5612 40.0231C30.5827 40.0086 30.6081 40.0008 30.634 40.0008C30.66 40.0008 30.6854 40.0086 30.7069 40.0231L32.225 40.9339C32.2525 40.9488 32.2833 40.9566 32.3146 40.9566C32.3459 40.9566 32.3767 40.9488 32.4042 40.9339L38.2945 37.5242C38.3238 37.5087 38.3478 37.4848 38.3635 37.4556C38.3792 37.4265 38.3858 37.3932 38.3826 37.3603V30.556C38.3852 30.5235 38.3783 30.491 38.3626 30.4624C38.347 30.4338 38.3233 30.4104 38.2945 30.3951L32.4042 26.9975C32.3762 26.9841 32.3456 26.9771 32.3146 26.9771C32.2836 26.9771 32.253 26.9841 32.225 26.9975L26.3347 30.3951C26.3071 30.4117 26.2844 30.4354 26.2689 30.4637C26.2535 30.4919 26.2458 30.5238 26.2466 30.556V37.3633C26.2452 37.396 26.2527 37.4285 26.2681 37.4574C26.2836 37.4862 26.3066 37.5104 26.3347 37.5273L27.9439 38.4564C28.8153 38.8996 29.3618 38.3835 29.3618 37.8673V31.1481C29.3626 31.1016 29.3814 31.0573 29.4143 31.0244C29.4471 30.9916 29.4915 30.9728 29.5379 30.972H30.2909C30.3374 30.9728 30.3817 30.9916 30.4146 31.0244C30.4474 31.0573 30.4663 31.1016 30.467 31.1481V37.8673C30.467 39.0332 29.8325 39.7134 28.7273 39.7134C28.3872 39.7134 28.12 39.7134 27.367 39.3429L25.8185 38.4564C25.6321 38.3452 25.478 38.1873 25.3715 37.9982C25.265 37.8091 25.2098 37.5955 25.2113 37.3785V30.5712C25.2098 30.3542 25.265 30.1406 25.3715 29.9515C25.478 29.7624 25.6321 29.6045 25.8185 29.4933L31.7089 26.0836C31.9001 25.9821 32.1133 25.929 32.3298 25.929C32.5463 25.929 32.7595 25.9821 32.9507 26.0836L38.841 29.4933C39.0272 29.6047 39.1811 29.7627 39.2876 29.9517C39.3941 30.1407 39.4495 30.3542 39.4483 30.5712V37.3785C39.4495 37.5954 39.3941 37.8089 39.2876 37.998C39.1811 38.187 39.0272 38.345 38.841 38.4564L32.9507 41.8691C32.7471 41.959 32.5265 42.0035 32.304 41.9997ZM34.1257 37.3208C31.5419 37.3208 31.0105 36.1397 31.0105 35.1347C31.0121 35.088 31.0315 35.0436 31.0649 35.0108C31.0982 34.978 31.1429 34.9593 31.1897 34.9586H31.9578C31.9781 34.9569 31.9985 34.9594 32.0178 34.966C32.0371 34.9725 32.0548 34.9829 32.0699 34.9966C32.085 35.0103 32.0971 35.0269 32.1055 35.0454C32.1139 35.0639 32.1184 35.084 32.1188 35.1043C32.2372 35.8877 32.5772 36.2702 34.1409 36.2702C35.3827 36.2702 35.9141 35.9909 35.9141 35.326C35.9141 34.9434 35.7653 34.661 33.8312 34.4698C32.222 34.3088 31.217 33.9536 31.217 32.6692C31.217 31.473 32.222 30.7625 33.9071 30.7625C35.7957 30.7625 36.7248 31.4122 36.8432 32.8302C36.8418 32.8778 36.827 32.9241 36.8007 32.9638C36.7699 32.9977 36.7278 33.0193 36.6823 33.0245H35.908C35.87 33.0225 35.8337 33.0085 35.8042 32.9845C35.7747 32.9605 35.7537 32.9277 35.7441 32.8909C35.5679 32.0772 35.1095 31.813 33.901 31.813C32.5408 31.813 32.3829 32.2836 32.3829 32.6389C32.3829 33.067 32.5742 33.2006 34.4051 33.4374C36.2359 33.6742 37.077 34.0113 37.077 35.2835C37.077 36.5557 35.9991 37.3208 34.1197 37.3208H34.1257Z" fill="#AFB4AE"/>
<path d="M14.0236 15.3783C14.0232 15.2458 13.9876 15.1158 13.9204 15.0016C13.8531 14.8874 13.7567 14.7931 13.6411 14.7285L7.3803 11.1245C7.27453 11.0688 7.15912 11.0337 7.04024 11.0212H6.98255C6.86232 11.0265 6.74537 11.0621 6.64249 11.1245L0.381723 14.7285C0.265695 14.793 0.168863 14.8871 0.101116 15.0013C0.0333699 15.1154 -0.002863 15.2455 -0.00388154 15.3783V25.0639C-0.00465532 25.1304 0.0127584 25.1958 0.0464741 25.253C0.0801899 25.3103 0.128924 25.3573 0.187403 25.3888C0.242539 25.4246 0.306872 25.4437 0.372615 25.4437C0.438357 25.4437 0.502691 25.4246 0.557827 25.3888L4.27724 23.2634C4.39658 23.1999 4.49671 23.1056 4.56719 22.9902C4.63768 22.8749 4.67596 22.7428 4.67803 22.6076V18.0805C4.68108 17.9506 4.71798 17.8238 4.78508 17.7125C4.85217 17.6012 4.94714 17.5093 5.0606 17.446L6.64249 16.5351C6.75784 16.4655 6.89039 16.4298 7.02506 16.4319C7.15617 16.4277 7.28541 16.4637 7.39548 16.5351L8.97433 17.446C9.09036 17.5104 9.18719 17.6046 9.25494 17.7187C9.32269 17.8329 9.35892 17.963 9.35994 18.0957V22.6076C9.36096 22.74 9.39687 22.8697 9.46404 22.9838C9.5312 23.0979 9.62725 23.1922 9.74251 23.2574L13.465 25.3827C13.5226 25.4161 13.588 25.4337 13.6547 25.434C13.7213 25.4343 13.7868 25.4172 13.8448 25.3844C13.9027 25.3516 13.9511 25.3042 13.9852 25.2469C14.0192 25.1896 14.0377 25.1245 14.0388 25.0579V15.3722L14.0236 15.3783Z" fill="#010500"/>
<path d="M44.118 2.04316C44.0604 2.01476 43.997 2 43.9328 2C43.8685 2 43.8052 2.01476 43.7476 2.04316C43.6907 2.07663 43.6433 2.12401 43.6099 2.18085C43.5764 2.23769 43.558 2.3021 43.5563 2.36804V11.9808C43.5569 12.0277 43.5452 12.074 43.5223 12.115C43.4994 12.1559 43.4661 12.1901 43.4258 12.2141C43.3855 12.2381 43.3396 12.2511 43.2926 12.2517C43.2457 12.2523 43.1995 12.2406 43.1585 12.2177L41.5918 11.3068C41.4767 11.2427 41.3471 11.2091 41.2153 11.2091C41.0836 11.2091 40.954 11.2427 40.8388 11.3068L34.5781 14.926C34.4624 14.9906 34.366 15.0849 34.2988 15.1991C34.2315 15.3132 34.1959 15.4433 34.1955 15.5758V22.7899C34.1959 22.9224 34.2315 23.0524 34.2988 23.1666C34.366 23.2808 34.4624 23.375 34.5781 23.4397L40.8388 27.0589C40.954 27.123 41.0836 27.1566 41.2153 27.1566C41.3471 27.1566 41.4767 27.123 41.5918 27.0589L47.8404 23.4397C47.9565 23.3752 48.0533 23.281 48.121 23.1669C48.1888 23.0527 48.225 22.9226 48.226 22.7899V4.79097C48.2271 4.65578 48.1919 4.52279 48.124 4.40584C48.0562 4.28889 47.9583 4.19226 47.8404 4.12603L44.1058 2.04316H44.118ZM43.5411 20.4125C43.5443 20.4455 43.5377 20.4787 43.522 20.5079C43.5063 20.5371 43.4823 20.561 43.453 20.5765L41.3125 21.8153C41.2828 21.8302 41.2501 21.838 41.2168 21.838C41.1836 21.838 41.1509 21.8302 41.1212 21.8153L38.9806 20.5765C38.9522 20.5597 38.9288 20.5357 38.9128 20.5069C38.8968 20.4781 38.8888 20.4455 38.8896 20.4125V17.9319C38.8868 17.899 38.894 17.8661 38.9102 17.8374C38.9265 17.8087 38.951 17.7855 38.9806 17.771L41.1212 16.5291C41.1509 16.5142 41.1836 16.5064 41.2168 16.5064C41.2501 16.5064 41.2828 16.5142 41.3125 16.5291L43.453 17.771C43.4809 17.7874 43.5037 17.811 43.5192 17.8393C43.5347 17.8676 43.5423 17.8996 43.5411 17.9319V20.4125Z" fill="#010500"/>
<path d="M64.9542 17.874C65.0681 17.8083 65.1624 17.7135 65.2275 17.5993C65.2926 17.4851 65.3261 17.3557 65.3247 17.2242V15.4662C65.3234 15.3354 65.2887 15.207 65.2239 15.0932C65.159 14.9795 65.0662 14.8843 64.9542 14.8165L58.739 11.2125C58.6239 11.1484 58.4943 11.1147 58.3625 11.1147C58.2308 11.1147 58.1012 11.1484 57.986 11.2125L51.7253 14.8317C51.6092 14.8962 51.5124 14.9903 51.4447 15.1044C51.3769 15.2186 51.3407 15.3487 51.3397 15.4814V22.7016C51.3407 22.8344 51.3769 22.9645 51.4447 23.0786C51.5124 23.1928 51.6092 23.2869 51.7253 23.3514L57.9405 26.8947C58.0523 26.9604 58.1797 26.995 58.3094 26.995C58.4391 26.995 58.5664 26.9604 58.6783 26.8947L62.4433 24.7997C62.5017 24.7678 62.5505 24.7208 62.5846 24.6637C62.6188 24.6066 62.6371 24.5414 62.6376 24.4748C62.6377 24.4081 62.6197 24.3427 62.5855 24.2854C62.5512 24.2282 62.5021 24.1814 62.4433 24.1499L56.1552 20.5307C56.0976 20.4979 56.0494 20.4507 56.0154 20.3938C55.9814 20.3369 55.9626 20.2721 55.9608 20.2058V17.9469C55.9607 17.8802 55.9787 17.8147 56.0129 17.7575C56.0472 17.7002 56.0963 17.6534 56.1552 17.622L58.1196 16.4986C58.177 16.4628 58.2433 16.4438 58.3109 16.4438C58.3785 16.4438 58.4448 16.4628 58.5022 16.4986L60.4667 17.622C60.5239 17.655 60.5716 17.7023 60.6051 17.7592C60.6386 17.8162 60.6568 17.8808 60.6579 17.9469V19.72C60.6596 19.7867 60.6786 19.8518 60.713 19.909C60.7474 19.9662 60.7961 20.0134 60.8542 20.0462C60.9123 20.0789 60.978 20.096 61.0447 20.0958C61.1114 20.0956 61.1769 20.078 61.2348 20.0449L64.9542 17.874Z" fill="#010500"/>
<path d="M58.2633 17.5339C58.2853 17.5191 58.3112 17.5112 58.3377 17.5112C58.3642 17.5112 58.3901 17.5191 58.4121 17.5339L59.6084 18.2261C59.6304 18.2408 59.6485 18.2607 59.6612 18.284C59.6739 18.3072 59.6808 18.3332 59.6812 18.3597V19.7473C59.6813 19.7739 59.6747 19.8001 59.662 19.8234C59.6492 19.8468 59.6308 19.8666 59.6084 19.8809L58.4121 20.5762C58.3896 20.5895 58.3639 20.5966 58.3377 20.5966C58.3115 20.5966 58.2858 20.5895 58.2633 20.5762L57.067 19.8748C57.0446 19.8605 57.0262 19.8407 57.0134 19.8174C57.0007 19.794 56.994 19.7678 56.9941 19.7412V18.3567C56.9946 18.3302 57.0015 18.3042 57.0141 18.2809C57.0268 18.2577 57.045 18.2378 57.067 18.2231L58.2633 17.5308V17.5339Z" fill="#AFB4AE"/>
<path d="M24.4939 11.2425C24.3793 11.1767 24.2495 11.1421 24.1174 11.1421C23.9853 11.1421 23.8555 11.1767 23.7409 11.2425L17.5227 14.8314C17.4086 14.8968 17.3141 14.9916 17.249 15.1058C17.1839 15.2201 17.1505 15.3496 17.1522 15.4811V22.671C17.1532 22.8019 17.1878 22.9304 17.2526 23.0442C17.3175 23.158 17.4105 23.2532 17.5227 23.3207L23.7409 26.9096C23.8555 26.9754 23.9853 27.01 24.1174 27.01C24.2495 27.01 24.3793 26.9754 24.4939 26.9096L30.7091 23.3207C30.8234 23.2555 30.918 23.1608 30.9832 23.0465C31.0483 22.9322 31.0816 22.8025 31.0795 22.671V15.4811C31.0783 15.3502 31.0436 15.2218 30.9787 15.1081C30.9139 14.9944 30.8211 14.8991 30.7091 14.8314L24.4939 11.2425Z" fill="#AFB4AE"/>
<path d="M30.7256 14.8319L24.48 11.243C24.4179 11.2121 24.3528 11.1877 24.2857 11.1702L17.3023 23.1603C17.3606 23.2304 17.4304 23.29 17.5088 23.3364L23.7574 26.9253C23.8425 26.9772 23.9376 27.0105 24.0365 27.0231C24.1354 27.0356 24.2359 27.0272 24.3312 26.9982L30.9017 14.9776C30.8555 14.9214 30.8013 14.8723 30.7408 14.8319H30.7256Z" fill="#AFB4AE"/>
<path fill-rule="evenodd" clip-rule="evenodd" d="M23.5327 9.92798L23.4446 9.97352H23.5509L23.5327 9.92798Z" fill="#AFB4AE"/>
<path fill-rule="evenodd" clip-rule="evenodd" d="M30.7408 23.321C30.9172 23.2149 31.0481 23.0473 31.1081 22.8503L24.2583 11.1547C24.0764 11.1166 23.8869 11.148 23.727 11.2427L17.5239 14.8164L24.2037 27.013C24.3015 26.9973 24.3966 26.9676 24.4861 26.925L30.7316 23.321H30.7408Z" fill="#AFB4AE"/>
<path fill-rule="evenodd" clip-rule="evenodd" d="M31.3146 23.2147L31.2721 23.1418V23.2451L31.3146 23.2147Z" fill="#AFB4AE"/>
<path fill-rule="evenodd" clip-rule="evenodd" d="M30.7408 23.3209L24.5074 26.9098C24.42 26.9549 24.3255 26.9847 24.228 26.9979L24.3464 27.2195L31.257 23.2147V23.1266L31.0809 22.823C31.0639 22.9242 31.0246 23.0203 30.9657 23.1043C30.9069 23.1884 30.8301 23.2582 30.7408 23.3088V23.3209Z" fill="#AFB4AE"/>
<path fill-rule="evenodd" clip-rule="evenodd" d="M30.7408 23.3209L24.5074 26.9098C24.42 26.9549 24.3255 26.9847 24.228 26.9979L24.3464 27.2195L31.257 23.2147V23.1266L31.0809 22.823C31.0639 22.9242 31.0246 23.0203 30.9657 23.1043C30.9069 23.1884 30.8301 23.2582 30.7408 23.3088V23.3209Z" fill="#AFB4AE"/>
</g>
<defs>
<clipPath id="clip0_925_3266">
<rect width="65.3286" height="44" fill="white" transform="translate(-0.00390625)"/>
</clipPath>
</defs>
</svg>
