<svg width="74" height="46" viewBox="0 0 74 46" fill="none" xmlns="http://www.w3.org/2000/svg">
<g clip-path="url(#clip0_925_3307)">
<path d="M22.9563 29.5609C26.6334 29.5609 29.6142 26.58 29.6142 22.903C29.6142 19.226 26.6334 16.2451 22.9563 16.2451C19.2793 16.2451 16.2984 19.226 16.2984 22.903C16.2984 26.58 19.2793 29.5609 22.9563 29.5609ZM7.21952 42.8766C10.8966 42.8766 13.8774 39.8958 13.8774 36.2187C13.8774 32.5417 10.8966 29.5609 7.21952 29.5609C3.54248 29.5609 0.561646 32.5417 0.561646 36.2187C0.561646 39.8958 3.54248 42.8766 7.21952 42.8766ZM67.3422 42.8766C71.0192 42.8766 74 39.8958 74 36.2187C74 32.5417 71.0192 29.5609 67.3422 29.5609C63.6651 29.5609 60.6843 32.5417 60.6843 36.2187C60.6843 39.8958 63.6651 42.8766 67.3422 42.8766Z" fill="#010500"/>
<path d="M45.4753 23.1832C45.2624 20.9588 45.154 19.1074 43.45 17.8062C41.2919 16.1583 38.8474 17.2275 35.8362 16.1407C32.8774 15.4249 30.6827 12.7979 30.6827 9.66667C30.6827 5.98477 33.7172 3 37.4604 3C40.2328 3 42.6164 4.6373 43.6663 6.98247C45.2732 10.0346 44.2288 13.1408 46.2477 14.7054C48.6383 16.558 51.8612 15.2014 55.4573 16.9567C56.6128 17.4876 57.5909 18.3298 58.2801 19.3736C58.9693 20.4173 59.3696 21.6627 59.3696 23C59.3696 26.1312 57.175 28.7582 54.2162 29.474C51.205 30.5609 48.7605 29.4916 46.6024 31.1395C44.1756 32.9926 45.4748 36.0928 43.497 39.3676C42.3744 41.524 40.0926 43 37.4604 43C33.7172 43 30.6827 40.0152 30.6827 36.3333C30.6827 33.6587 32.284 31.352 34.595 30.29C38.1912 28.5347 41.4141 29.8914 43.8046 28.0388C45.1837 26.97 45.4753 25.3213 45.4753 23.1832Z" fill="#AFB4AE"/>
</g>
<defs>
<clipPath id="clip0_925_3307">
<rect width="73.4384" height="46" fill="white" transform="translate(0.561646)"/>
</clipPath>
</defs>
</svg>
