<svg width="30" height="30" viewBox="0 0 30 30" fill="none" xmlns="http://www.w3.org/2000/svg">
<path d="M22.4998 0.0273438H7.49982V2.50916H22.4998V0.0273438Z" fill="#010500"/>
<path d="M2.50898 7.52734H0.0271606V22.4728H2.50898V7.52734Z" fill="#010500"/>
<path d="M4.99042 22.5273H2.50861V24.9819H4.99042V22.5273Z" fill="#010500"/>
<path d="M4.99042 5.01807H2.50861V7.49988H4.99042V5.01807Z" fill="#010500"/>
<path d="M27.4904 5.01807H25.0086V7.49988H27.4904V5.01807Z" fill="#010500"/>
<path d="M22.4998 27.5181H7.49982V29.9726H22.4998V27.5181Z" fill="#010500"/>
<path d="M7.50019 25.0093H5.01837V27.4638H7.50019V25.0093Z" fill="#010500"/>
<path d="M7.50019 2.50928H5.01837V5.01837H7.50019V2.50928Z" fill="#010500"/>
<path d="M25.0089 2.50928H22.4998V5.01837H25.0089V2.50928Z" fill="#010500"/>
<path d="M29.9728 7.52734H27.491V22.4728H29.9728V7.52734Z" fill="#010500"/>
<path d="M27.4904 22.5273H25.0086V24.9819H27.4904V22.5273Z" fill="#010500"/>
<path d="M25.0089 25.0093H22.4998V27.4638H25.0089V25.0093Z" fill="#010500"/>
<path d="M19.67 12.8273V13.3273H20.17H21.5272V18.0273H20.17H19.67V18.5273V19.9273H18.3129H17.8129V20.4273V27.5273H13.2414V24.2273V23.7273H12.7414H10.4557V22.8273H12.7414H13.2414V22.3273V20.4273V19.9273H12.7414H11.3843V18.5273V18.0273H10.8843H9.52716V13.3273H10.8843H11.3843V12.8273V9.52734H12.2414V10.9273V11.4273H12.7414H18.3129H18.8129V10.9273V9.52734H19.67V12.8273Z" fill="#010500" stroke="#010500"/>
<path d="M8.52716 21.5273V20.5273H9.52716V21.5273H8.52716Z" fill="#010500" stroke="#010500"/>
</svg>
