<svg width="31" height="30" viewBox="0 0 31 30" fill="none" xmlns="http://www.w3.org/2000/svg">
<path d="M25.9728 0H5.97284V2.30769H25.9728V0Z" fill="#010500"/>
<path d="M3.47284 20.7692L3.47284 4.61536H0.972839L0.972839 20.7692H3.47284Z" fill="#010500"/>
<path d="M5.97284 23.077V20.7693H3.47284V23.077H5.97284Z" fill="#010500"/>
<path d="M30.9728 20.7692V4.61536H28.4728V20.7692H30.9728Z" fill="#010500"/>
<path d="M5.97284 2.30774H3.47284V4.61543H5.97284V2.30774Z" fill="#010500"/>
<path d="M25.9728 4.61536H28.4728V2.30766L25.9728 2.30766V4.61536Z" fill="#010500"/>
<path d="M14.7228 11.5385H17.2228V9.23076H14.7228V11.5385Z" fill="#010500"/>
<path d="M17.2228 13.8462H19.7228V11.5385H17.2228V13.8462Z" fill="#010500"/>
<path d="M14.7228 6.9231L19.7228 6.9231V4.6154H14.7228V6.9231Z" fill="#010500"/>
<path d="M19.7228 9.23071H22.2228V6.92302H19.7228V9.23071Z" fill="#010500"/>
<path d="M22.2228 13.8462H24.7228V9.23081H22.2228V13.8462Z" fill="#010500"/>
<path d="M8.47284 25.3846V30H10.9728V27.6923H13.4728V25.3846H8.47284Z" fill="#010500"/>
<path d="M13.4728 25.3846H25.9728V23.077H13.4728V25.3846Z" fill="#010500"/>
<path d="M25.9728 23.0769H28.4728V20.7692H25.9728V23.0769Z" fill="#010500"/>
<path d="M12.2228 13.8461V9.23071H7.22284V16.1538H9.72284V13.8461H12.2228Z" fill="#010500"/>
<path d="M12.2228 16.1538H9.72284V18.4615H12.2228V16.1538Z" fill="#010500"/>
<path d="M14.7228 16.1538V18.4615H12.2228V20.7692H19.7228V16.1538H14.7228Z" fill="#010500"/>
<path d="M8.47284 23.0769H5.97284V25.3846H8.47284V23.0769Z" fill="#010500"/>
</svg>
