<svg width="51" height="50" viewBox="0 0 51 50" fill="none" xmlns="http://www.w3.org/2000/svg">
<g clip-path="url(#clip0_925_3241)">
<path d="M0.476532 0.00708008H50.476V50.0066H0.476532V0.00708008Z" fill="#010500"/>
<path d="M30.5895 0.798096L36.1771 4.01127L14.1726 16.6655L8.58502 13.4522L30.5895 0.798096Z" fill="#F8FCF7"/>
<path d="M36.4024 4.68604L14.5363 17.2549L14.5356 23.6137L36.4017 11.0448L36.4024 4.68604Z" fill="#F8FCF7"/>
<path d="M27.609 17.0962L14.5818 24.5841L14.5811 30.9435L27.6083 23.4556L27.609 17.0962Z" fill="#F8FCF7"/>
<path d="M22.6156 27.1492L14.5519 31.7846L14.5511 38.144L22.6155 33.5085L22.6156 27.1492Z" fill="#F8FCF7"/>
<path d="M8.18774 14.0649L13.8082 17.2955L13.806 23.656L8.18558 20.4255L8.18774 14.0649Z" fill="#F8FCF7"/>
<path d="M8.24121 21.3506L13.7935 24.5419L13.7913 30.9024L8.23904 27.7112L8.24121 21.3506Z" fill="#F8FCF7"/>
<path d="M8.23879 28.5925L13.7929 31.785L13.7906 38.5651L8.23648 35.3727L8.23879 28.5925Z" fill="#F8FCF7"/>
<path d="M20.615 49.2152L15.0274 46.002L36.7823 33.4919L42.3698 36.7051L20.615 49.2152Z" fill="#F8FCF7"/>
<path d="M14.5847 45.4521L36.418 32.9023L36.4187 26.5435L14.5854 39.0933L14.5847 45.4521Z" fill="#F8FCF7"/>
<path d="M23.3448 33.0612L36.3719 25.5732L36.3727 19.2139L23.3455 26.7018L23.3448 33.0612Z" fill="#F8FCF7"/>
<path d="M28.3387 23.0077L36.4025 18.3723L36.4031 12.0129L28.3394 16.6484L28.3387 23.0077Z" fill="#F8FCF7"/>
<path d="M42.767 36.1347L37.1466 32.9042L37.1488 26.5437L42.7692 29.7742L42.767 36.1347Z" fill="#F8FCF7"/>
<path d="M42.714 28.808L37.1617 25.6166L37.1639 19.2561L42.7161 22.4474L42.714 28.808Z" fill="#F8FCF7"/>
<path d="M42.7163 21.5663L37.1621 18.3739L37.1644 11.7153L42.7185 14.9077L42.7163 21.5663Z" fill="#F8FCF7"/>
</g>
<defs>
<clipPath id="clip0_925_3241">
<rect width="50" height="50" fill="white" transform="translate(0.476807)"/>
</clipPath>
</defs>
</svg>
