<svg width="50" height="50" viewBox="0 0 50 50" fill="none" xmlns="http://www.w3.org/2000/svg">
<path d="M0 24.9923V0H50V50H0" fill="#010500"/>
<path d="M10.958 25.0784V27.1161H17.4415V45.6094H22.054V27.1161H28.553V25.1154C28.5833 24.4286 28.5658 23.7405 28.5005 23.0562C28.5005 23.016 24.5394 23.0037 19.7293 23.0037L10.9827 23.0438V25.0908H10.9457L10.958 25.0784ZM40.1615 22.9913C41.3593 23.2587 42.4484 23.8818 43.2859 24.7789C43.7459 25.2791 44.4344 26.1528 44.4838 26.3782C44.4838 26.4554 42.3226 27.9219 41.0105 28.7277C40.9611 28.7647 40.7604 28.5548 40.5598 28.2275C39.9114 27.3013 39.2476 26.903 38.2103 26.8289C36.7129 26.7301 35.7126 27.5174 35.7126 28.8296C35.7065 29.1595 35.784 29.4855 35.938 29.7774C36.2745 30.4659 36.8981 30.8765 38.837 31.7286C42.4091 33.2723 43.959 34.2757 44.8975 35.7422C45.9596 37.3661 46.1973 39.9163 45.4841 41.8274C44.6845 43.9145 42.7333 45.3254 39.9485 45.7885C38.6808 45.9334 37.4001 45.9209 36.1356 45.7515C34.138 45.3748 32.2269 44.3776 31.0506 43.0901C30.5875 42.59 29.7015 41.2532 29.7509 41.1636L30.2263 40.8549L32.1004 39.7681L33.5113 38.9438L33.8385 39.3822C34.3391 40.1061 34.9756 40.7258 35.7126 41.2068C37.3365 42.0435 39.51 41.9293 40.5845 40.9568C40.8015 40.7732 40.974 40.5428 41.089 40.2829C41.2039 40.023 41.2584 39.7403 41.2482 39.4563C41.2788 39 41.1452 38.5477 40.8716 38.1812C40.4733 37.6317 39.6737 37.1809 37.423 36.1837C34.8358 35.0815 33.7367 34.3837 32.7117 33.3093C32.0901 32.5767 31.6228 31.7261 31.3378 30.8086C31.1313 29.7502 31.1063 28.6645 31.2637 27.5977C31.8009 25.0969 33.6873 23.3495 36.3856 22.8493C37.6511 22.6895 38.9338 22.7312 40.1862 22.9728L40.1615 22.9975V22.9913Z" fill="#F8FCF7"/>
</svg>
