<svg width="46" height="52" viewBox="0 0 46 52" fill="none" xmlns="http://www.w3.org/2000/svg">
<path d="M13.0996 3.23501H11.0519V1H8.78345V7.74518H11.0519V5.51017H13.0996V7.74518H15.368V1H13.0996V3.23501ZM28.9186 1H28.7179L27.3126 3.30193L25.9074 1H25.7468H23.659H23.5519V7.74518H25.7468V4.37928L27.3059 6.80835L28.9052 4.31237V7.74518H31.1001V1H30.9462H28.9186ZM16.3517 3.26847H18.3257V7.74518H20.5942V3.26847H22.5682V1H16.3517V3.26847ZM34.5329 5.47671V1H32.2644V7.74518H32.8399H34.5329H37.6914V5.47671H34.5329Z" fill="#010500"/>
<path d="M40.9961 10.8032H23.2364H5.47681L8.80256 46.9114L23.2364 51L37.6703 46.9114L40.9961 10.8032Z" fill="#010500"/>
<path d="M23.2366 13.7407V47.9417L34.9269 44.6294L37.7708 13.7407H23.2366Z" fill="#AFB4AE"/>
<path d="M34.4109 18.1709H12.0608L13.3121 31.6947L13.3322 31.6077H28.6092L28.1074 37.3291L23.2425 38.7343L18.2907 37.309L17.9963 33.8494H13.5062L14.1486 40.7686L23.2358 43.3449L32.3231 40.7686L33.5811 27.1912H17.374L16.9591 22.661H33.996L34.4109 18.1709Z" fill="#F8FCF7"/>
<path d="M23.2378 18.1704H12.0627L13.3074 31.6942L13.3342 31.6072H23.2378V27.1841H17.3759L16.961 22.6605H23.2378V18.1704ZM17.9982 33.8489H13.5148L14.1505 40.7681L23.2378 43.3444V38.7338L18.2927 37.3085L17.9982 33.8489Z" fill="#F8FCF7"/>
</svg>
