<svg width="44" height="52" viewBox="0 0 44 52" fill="none" xmlns="http://www.w3.org/2000/svg">
<path d="M39.5616 10.7988H21.8015H4.04138L7.36882 46.9101L21.8015 51L36.2283 46.9101L39.5616 10.7988Z" fill="#010500"/>
<path d="M21.8008 13.7424V47.9418L33.4883 44.6291L36.334 13.7424H21.8008Z" fill="#AFB4AE"/>
<path d="M31.0994 18.1721H13.1235L11.8735 31.6917L11.9001 31.606H27.1691L26.6697 37.3271L21.7997 38.7307L16.8558 37.3064L16.5574 33.843H12.0686L12.7098 40.7609L21.7997 43.3436L30.8896 40.7609L32.1396 27.1881H15.9368L16.1436 22.6609H27.3907L27.5562 25.2525H32.0864L31.0994 18.1721Z" fill="#F8FCF7"/>
<path d="M21.7997 18.1721H13.1206L11.8735 31.6917L11.9001 31.6089H21.7997V27.1822H16.5633L16.7701 22.655H21.7938L21.7997 18.1721ZM16.5574 33.8341H12.0686L12.7098 40.7757L21.7997 43.3377V38.7307L16.8558 37.3064L16.5574 33.8341Z" fill="#F8FCF7"/>
<path d="M18.3426 5.47402H15.1836V7.74058H18.3426H20.0359H20.6062V1H18.3426V5.47402Z" fill="#010500"/>
<path d="M28.4174 1.03247H22.9061V3.39655C23.6419 4.13532 24.0291 4.48698 25.0959 5.55377H22.9061V7.70508H28.4174V5.55377L26.2158 3.39359H28.4174V1.03247Z" fill="#010500"/>
</svg>
