<svg width="51" height="52" viewBox="0 0 51 52" fill="none" xmlns="http://www.w3.org/2000/svg">
<path d="M49.6929 30.9562C49.401 30.0735 48.6365 29.455 47.6496 29.309C47.1839 29.2395 46.6488 29.2673 46.0163 29.3994C44.9182 29.6287 44.0981 29.7121 43.5074 29.726C45.7522 25.9313 47.587 21.6015 48.6365 17.5288C50.3392 10.9402 49.4288 7.93776 48.3654 6.58251C45.5507 2.98935 41.4502 1.05725 36.5018 1.00165C33.8607 0.966901 31.5464 1.48815 30.3371 1.86345C29.2112 1.6619 28.0019 1.5507 26.73 1.5368C24.3462 1.50205 22.2473 2.01635 20.4472 3.08665C19.4534 2.75305 17.8549 2.2735 16.0131 1.97465C11.6763 1.26575 8.18047 1.8148 5.62287 3.6218C2.52317 5.81106 1.09147 9.61271 1.35557 14.9156C1.43897 16.6044 2.38417 21.7266 3.86452 26.5916C4.71937 29.3855 5.62982 31.7068 6.56807 33.4929C7.90247 36.0227 9.33418 37.51 10.9327 38.0452C11.8292 38.344 13.4625 38.5525 15.1791 37.1208C15.3946 37.3849 15.6865 37.649 16.0757 37.8923C16.5622 38.1981 17.1668 38.4552 17.7645 38.6012C19.919 39.1363 21.9345 39.0043 23.6581 38.2467C23.672 38.5525 23.679 38.8444 23.6859 39.0946C23.6998 39.5047 23.7068 39.9078 23.7207 40.2831C23.8249 42.8198 23.9987 44.8006 24.506 46.1836C24.5338 46.2601 24.5686 46.3782 24.6103 46.4964C24.8674 47.2817 25.2914 48.5883 26.3825 49.61C27.5084 50.6733 28.8706 51 30.1147 51C30.7402 51 31.3379 50.9166 31.8591 50.8054C33.7217 50.4023 35.8415 49.7976 37.3775 47.6153C38.8231 45.5512 39.532 42.4445 39.6571 37.5517C39.671 37.4127 39.6918 37.2807 39.7057 37.1556L39.7335 36.8984L40.0741 36.9262L40.1644 36.9332C42.0618 37.0166 44.39 36.6135 45.8148 35.9532C46.9337 35.432 50.5408 33.5277 49.6929 30.9562Z" fill="#010500"/>
<path d="M46.4479 31.4565C40.7976 32.6241 40.4084 30.7059 40.4084 30.7059C46.3715 21.8586 48.8665 10.6204 46.712 7.87516C40.8393 0.376107 30.6853 3.92061 30.5116 4.01791L30.456 4.02486C29.337 3.79551 28.093 3.65651 26.6891 3.63566C24.1315 3.59396 22.1924 4.30286 20.726 5.42181C20.726 5.42181 2.60033 -2.0425 3.44129 14.8113C3.62199 18.3975 8.58429 41.9441 14.4987 34.8342C16.6602 32.2349 18.7522 30.0318 18.7522 30.0318C19.7877 30.7198 21.0318 31.0743 22.3384 30.9492L22.4426 30.8658C22.4079 31.1855 22.4287 31.5052 22.4843 31.8805C20.9623 33.5832 21.4071 33.8821 18.363 34.5076C15.2771 35.14 17.0911 36.2729 18.2726 36.5717C19.7043 36.9331 23.0264 37.4405 25.2643 34.2991L25.174 34.6605C25.7717 35.14 26.1887 37.7741 26.1192 40.1579C26.0497 42.5418 26.001 44.182 26.4736 45.4608C26.9462 46.7396 27.4119 49.6239 31.422 48.7621C34.7719 48.0462 36.5025 46.1836 36.7457 43.0839C36.9195 40.8807 37.3017 41.2074 37.3295 39.2336L37.6423 38.3023C38.0037 35.3138 37.6979 34.3477 39.762 34.7995L40.2624 34.8412C41.7775 34.9107 43.7652 34.5979 44.9328 34.0558C47.4348 32.8882 48.9221 30.9422 46.4479 31.4565Z" fill="#AFB4AE"/>
<path d="M21.7867 16.4099C21.2794 16.3404 20.8137 16.403 20.5844 16.5837C20.4523 16.681 20.4106 16.7991 20.4037 16.8756C20.3759 17.0841 20.5218 17.3204 20.6122 17.4385C20.8693 17.7791 21.2446 18.0084 21.613 18.064C21.6686 18.071 21.7172 18.0779 21.7728 18.0779C22.3914 18.0779 22.9474 17.5984 22.996 17.2439C23.0516 16.7922 22.4122 16.5003 21.7867 16.4099ZM38.6474 16.4238C38.5988 16.0763 37.9802 15.979 37.3895 16.0555C36.8057 16.1389 36.2358 16.403 36.2844 16.7505C36.3192 17.0215 36.8126 17.4872 37.3895 17.4872C37.4381 17.4872 37.4868 17.4872 37.5354 17.4802C37.9246 17.4246 38.2026 17.1814 38.3416 17.0424C38.5501 16.82 38.6683 16.5837 38.6474 16.4238Z" fill="#F8FCF7"/>
<path d="M48.3239 31.3178C48.1084 30.6645 47.4134 30.456 46.2667 30.6923C42.8473 31.4012 41.6241 30.9078 41.221 30.6159C43.8759 26.564 46.0651 21.6712 47.2466 17.1051C47.8026 14.9436 48.1154 12.9351 48.1362 11.2949C48.164 9.4948 47.8582 8.1743 47.2258 7.3681C44.6821 4.1155 40.943 2.37105 36.4255 2.3224C33.3188 2.28765 30.6917 3.07995 30.1774 3.3093C29.1071 3.0452 27.9395 2.8784 26.6607 2.85755C24.3255 2.8228 22.31 3.3788 20.642 4.5186C19.9192 4.24755 18.0427 3.60815 15.7492 3.23285C11.7877 2.59345 8.63239 3.07995 6.38754 4.6715C3.70484 6.56885 2.46774 9.9674 2.70404 14.7699C2.78744 16.3823 3.70484 21.3515 5.15739 26.1053C7.06864 32.3673 9.14669 35.9118 11.329 36.6415C11.5861 36.7249 11.878 36.7875 12.2047 36.7875C13.0039 36.7875 13.9769 36.4261 14.9986 35.2029C16.2357 33.7156 17.5214 32.263 18.8489 30.8452C19.7107 31.3039 20.649 31.5611 21.615 31.5889C21.615 31.6167 21.622 31.6375 21.622 31.6653C21.4552 31.8669 21.2953 32.0615 21.1355 32.27C20.4683 33.1179 20.3293 33.2986 18.1748 33.7364C17.5631 33.8615 15.9368 34.1951 15.909 35.3419C15.8812 36.5859 17.8342 37.1141 18.0566 37.1697C18.8281 37.3643 19.5787 37.4616 20.2876 37.4616C22.0181 37.4616 23.5402 36.8917 24.7564 35.7936C24.7217 40.2347 24.9024 44.6132 25.4375 45.9476C25.8754 47.0387 26.9387 49.7075 30.3095 49.7075C30.8029 49.7075 31.345 49.6519 31.9497 49.5199C35.4664 48.7693 36.9954 47.2125 37.5861 43.7861C37.8989 41.9513 38.4479 37.5798 38.6981 35.2307C39.2402 35.3975 39.9283 35.4739 40.6789 35.4739C42.2426 35.4739 44.0496 35.1403 45.1755 34.6191C46.4474 34.0283 48.7409 32.5827 48.3239 31.3178ZM39.9491 15.4649C39.9352 16.1599 39.8449 16.7854 39.7406 17.4456C39.6294 18.1545 39.5182 18.8843 39.4904 19.7669C39.4626 20.6287 39.5669 21.5253 39.6711 22.394C39.8796 24.1454 40.0951 25.9455 39.2611 27.7247C39.1221 27.4814 38.997 27.2243 38.8927 26.9602C38.7885 26.71 38.5661 26.3069 38.2533 25.7439C37.0371 23.5686 34.1945 18.4603 35.6471 16.3823C36.0849 15.7568 37.183 15.1243 39.9491 15.4649ZM36.5992 3.73325C40.6511 3.8236 43.855 5.3387 46.1277 8.23685C47.8652 10.4609 45.9539 20.5801 40.4009 29.3162C40.3453 29.2467 40.2897 29.1772 40.2341 29.1008L40.1646 29.0104C41.5963 26.6405 41.3183 24.2983 41.0681 22.2203C40.9638 21.3654 40.8665 20.5662 40.8943 19.8086C40.9221 19.0094 41.0264 18.3213 41.1306 17.6541C41.2557 16.834 41.3878 15.9861 41.3461 14.9853C41.3739 14.8811 41.3808 14.756 41.3669 14.61C41.2766 13.6509 40.1854 10.7875 37.9545 8.1882C36.7382 6.7704 34.959 5.17885 32.5265 4.10855C33.569 3.90005 35.0007 3.6985 36.5992 3.73325ZM13.9213 34.3133C12.8024 35.6616 12.024 35.4044 11.7738 35.321C10.1127 34.765 8.19454 31.2622 6.49874 25.7092C5.03229 20.8998 4.17049 16.0626 4.10794 14.7073C3.89249 10.4192 4.93499 7.43065 7.20069 5.8252C10.8842 3.212 16.9446 4.77575 19.3771 5.56805C19.3424 5.6028 19.3076 5.63755 19.2729 5.6723C15.2766 9.71025 15.3739 16.5977 15.3808 17.0217C15.3808 17.1815 15.3947 17.4178 15.4156 17.7306C15.4851 18.8912 15.6102 21.0457 15.2696 23.4921C14.9499 25.7648 15.6519 27.9888 17.1878 29.5873C17.3477 29.7541 17.5145 29.907 17.6882 30.0529C16.9932 30.7896 15.5059 32.409 13.9213 34.3133ZM18.1956 28.6143C16.9585 27.3216 16.3955 25.5215 16.6527 23.6798C17.0141 21.1013 16.882 18.8495 16.8056 17.6402C16.7986 17.4734 16.7847 17.3205 16.7847 17.2093C17.3685 16.695 20.0721 15.2425 22.0042 15.6873C22.8869 15.8888 23.422 16.4865 23.6444 17.5221C24.7981 22.8597 23.7973 25.0837 22.9911 26.8698C22.8243 27.2382 22.6714 27.5857 22.5324 27.9471L22.4282 28.2251C22.1641 28.927 21.9208 29.5803 21.7679 30.2058C20.4474 30.1989 19.1686 29.6359 18.1956 28.6143ZM18.3971 35.8145C18.0149 35.7172 17.6674 35.5504 17.4658 35.4114C17.6326 35.3349 17.9385 35.2237 18.4597 35.1125C20.9895 34.5913 21.3857 34.2229 22.2405 33.1387C22.4351 32.8885 22.6575 32.6105 22.9633 32.263C23.422 31.7487 23.6305 31.8391 24.0128 31.992C24.3186 32.1171 24.6174 32.5063 24.7425 32.9302C24.7981 33.1318 24.8676 33.514 24.6522 33.8059C22.866 36.3149 20.2598 36.2801 18.3971 35.8145ZM31.6508 48.1507C28.5511 48.8179 27.453 47.2333 26.7302 45.4263C26.2646 44.2587 26.0352 38.9976 26.1951 33.1874C26.1951 33.1109 26.1881 33.0345 26.1673 32.965C26.1464 32.826 26.1186 32.687 26.0839 32.5549C25.8406 31.707 25.2499 31.0051 24.5479 30.7062C24.2699 30.5881 23.7487 30.3796 23.1301 30.5325C23.2622 29.9904 23.4915 29.3718 23.7417 28.7046L23.846 28.4266C23.9641 28.1139 24.1101 27.7803 24.2699 27.4397C25.1109 25.5702 26.2646 23.0056 25.0136 17.2163C24.5479 15.0479 22.9772 13.9915 20.6073 14.2347C19.1825 14.3807 17.8828 14.9575 17.2365 15.2842C17.0975 15.3537 16.9724 15.4232 16.8473 15.4927C17.028 13.3104 17.716 9.22375 20.2737 6.6453C21.8861 5.019 24.0336 4.21975 26.6468 4.26145C31.8037 4.34485 35.105 6.9928 36.9745 9.19595C38.58 11.0933 39.4557 13.0115 39.8032 14.0401C37.19 13.776 35.4108 14.2903 34.5142 15.5761C32.5543 18.3769 35.5845 23.8118 37.044 26.425C37.3081 26.9046 37.5444 27.3146 37.6139 27.4953C38.0865 28.6421 38.7051 29.4135 39.1499 29.9765C39.2889 30.1502 39.4209 30.317 39.5252 30.463C38.7329 30.6923 37.3151 31.2205 37.4402 33.8546C37.3359 35.1751 36.5923 41.3675 36.217 43.5498C35.7027 46.4341 34.6393 47.5113 31.6508 48.1507ZM44.5848 33.3472C43.7786 33.7225 42.4233 34.0075 41.1376 34.0631C39.7198 34.1326 38.997 33.9032 38.8232 33.7642C38.7468 32.124 39.3514 31.9503 39.9978 31.7696C40.102 31.7418 40.1993 31.714 40.2966 31.6792C40.3592 31.7279 40.4217 31.7765 40.4912 31.8252C41.631 32.5758 43.6674 32.6592 46.5447 32.0684L46.5794 32.0615C46.1902 32.4229 45.53 32.9094 44.5848 33.3472Z" fill="#F8FCF7"/>
</svg>
