<svg width="58" height="50" viewBox="0 0 58 50" fill="none" xmlns="http://www.w3.org/2000/svg">
<g clip-path="url(#clip0_925_3293)">
<path d="M28.9382 19.9331C26.166 19.9331 23.918 22.1811 23.918 24.9533C23.918 27.7256 26.166 29.9736 28.9382 29.9736C31.7105 29.9736 33.9584 27.7256 33.9584 24.9533C33.9584 22.1811 31.7105 19.9331 28.9382 19.9331ZM28.9382 19.9331C26.166 19.9331 23.918 22.1811 23.918 24.9533C23.918 27.7256 26.166 29.9736 28.9382 29.9736C31.7105 29.9736 33.9584 27.7256 33.9584 24.9533C33.9584 22.1811 31.7105 19.9331 28.9382 19.9331ZM28.9382 19.9331C26.166 19.9331 23.918 22.1811 23.918 24.9533C23.918 27.7256 26.166 29.9736 28.9382 29.9736C31.7105 29.9736 33.9584 27.7256 33.9584 24.9533C33.9584 22.1811 31.7105 19.9331 28.9382 19.9331ZM28.9382 19.9331C26.166 19.9331 23.918 22.1811 23.918 24.9533C23.918 27.7256 26.166 29.9736 28.9382 29.9736C31.7105 29.9736 33.9584 27.7256 33.9584 24.9533C33.9584 22.1811 31.7105 19.9331 28.9382 19.9331ZM28.9382 19.9331C26.166 19.9331 23.918 22.1811 23.918 24.9533C23.918 27.7256 26.166 29.9736 28.9382 29.9736C31.7105 29.9736 33.9584 27.7256 33.9584 24.9533C33.9584 22.1811 31.7105 19.9331 28.9382 19.9331ZM28.9382 19.9331C26.166 19.9331 23.918 22.1811 23.918 24.9533C23.918 27.7256 26.166 29.9736 28.9382 29.9736C31.7105 29.9736 33.9584 27.7256 33.9584 24.9533C33.9584 22.1811 31.7105 19.9331 28.9382 19.9331ZM28.9382 19.9331C26.166 19.9331 23.918 22.1811 23.918 24.9533C23.918 27.7256 26.166 29.9736 28.9382 29.9736C31.7105 29.9736 33.9584 27.7256 33.9584 24.9533C33.9584 22.1811 31.7105 19.9331 28.9382 19.9331ZM28.9382 19.9331C26.166 19.9331 23.918 22.1811 23.918 24.9533C23.918 27.7256 26.166 29.9736 28.9382 29.9736C31.7105 29.9736 33.9584 27.7256 33.9584 24.9533C33.9584 22.1811 31.7105 19.9331 28.9382 19.9331ZM28.9382 19.9331C26.166 19.9331 23.918 22.1811 23.918 24.9533C23.918 27.7256 26.166 29.9736 28.9382 29.9736C31.7105 29.9736 33.9584 27.7256 33.9584 24.9533C33.9584 22.1811 31.7105 19.9331 28.9382 19.9331ZM28.9382 19.9331C26.166 19.9331 23.918 22.1811 23.918 24.9533C23.918 27.7256 26.166 29.9736 28.9382 29.9736C31.7105 29.9736 33.9584 27.7256 33.9584 24.9533C33.9584 22.1811 31.7105 19.9331 28.9382 19.9331ZM28.9382 19.9331C26.166 19.9331 23.918 22.1811 23.918 24.9533C23.918 27.7256 26.166 29.9736 28.9382 29.9736C31.7105 29.9736 33.9584 27.7256 33.9584 24.9533C33.9584 22.1811 31.7105 19.9331 28.9382 19.9331ZM28.9382 19.9331C26.166 19.9331 23.918 22.1811 23.918 24.9533C23.918 27.7256 26.166 29.9736 28.9382 29.9736C31.7105 29.9736 33.9584 27.7256 33.9584 24.9533C33.9584 22.1811 31.7105 19.9331 28.9382 19.9331ZM47.0512 16.2057C46.4551 15.9974 45.8518 15.8107 45.2413 15.6383C45.3419 15.2289 45.4353 14.8195 45.5214 14.403C46.8932 7.75245 45.9954 2.39468 42.9359 0.635092C40.0057 -1.05268 35.2081 0.706912 30.3602 4.92275C29.8862 5.3393 29.4194 5.77022 28.9597 6.20832C28.6581 5.91386 28.3421 5.62658 28.0261 5.34648C22.9484 0.836189 17.8636 -1.05986 14.804 0.706912C11.8738 2.40186 11.0048 7.43645 12.2401 13.7422C12.3622 14.3671 12.4986 14.9847 12.6566 15.6024C11.9384 15.8035 11.2418 16.0261 10.5738 16.2559C4.61996 18.3315 0.820679 21.585 0.820679 24.9533C0.820679 28.4366 4.90005 31.9342 11.0981 34.0529C11.6009 34.2253 12.1108 34.3833 12.6207 34.5269C12.4555 35.1949 12.3047 35.8628 12.1826 36.5307C11.0048 42.7216 11.924 47.6413 14.8471 49.3219C17.8636 51.0599 22.9269 49.2716 27.8609 44.9624C28.2487 44.6248 28.6437 44.2585 29.0316 43.8779C29.5271 44.3519 30.0299 44.8187 30.5542 45.264C35.3302 49.3721 40.0488 51.0384 42.9718 49.3434C45.9883 47.5982 46.965 42.3194 45.6938 35.8915C45.5933 35.4031 45.4855 34.9004 45.3562 34.3905C45.7153 34.2828 46.0601 34.175 46.4048 34.0673C52.8471 31.9342 57.0414 28.4797 57.0414 24.9533C57.0485 21.5706 53.12 18.2956 47.0512 16.2057ZM31.9403 6.73261C36.0915 3.12006 39.9698 1.69803 41.7365 2.71069C43.6182 3.79517 44.3508 8.17619 43.1657 13.9146C43.0867 14.2881 43.0006 14.6615 42.9144 15.035C40.5802 14.4964 38.0522 14.0942 35.3948 13.85C33.8507 11.6523 32.2491 9.6485 30.6403 7.91764C31.0713 7.50827 31.5022 7.11326 31.9403 6.73261ZM17.4326 27.8405C17.9426 28.8244 18.474 29.794 19.027 30.7492C19.5944 31.726 20.1833 32.6884 20.7938 33.6364C18.9552 33.4281 17.2172 33.1552 15.6156 32.8033C16.104 31.1945 16.7144 29.5355 17.4326 27.8405ZM17.4255 22.1883C16.7288 20.5292 16.1255 18.8989 15.6371 17.3261C17.2387 16.967 18.9552 16.6725 20.7364 16.4499C20.1403 17.3835 19.5657 18.3244 19.0127 19.2796C18.4597 20.2419 17.9354 21.2115 17.4255 22.1883ZM18.7039 25.0108C19.4436 23.4738 20.2408 21.9584 21.0955 20.479C21.9501 18.9995 22.8551 17.5487 23.8174 16.141C25.4908 16.0118 27.2002 15.9471 28.9382 15.9471C30.6762 15.9471 32.3927 16.0118 34.0662 16.141C35.0214 17.5487 35.9263 18.9923 36.7738 20.4646C37.6284 21.9441 38.44 23.4451 39.1941 24.9749C38.44 26.519 37.6356 28.0344 36.7809 29.5283C35.9263 31.0078 35.0285 32.4585 34.0877 33.8806C32.4215 34.0027 30.6978 34.0601 28.9382 34.0601C27.1858 34.0601 25.4908 34.0027 23.8462 33.9021C22.8766 32.4873 21.9573 31.0293 21.0955 29.5426C20.248 28.0631 19.4436 26.5549 18.7039 25.0108ZM38.8637 30.7277C39.4311 29.7437 39.9698 28.7526 40.494 27.7471C41.2481 29.4565 41.8802 31.1155 42.3829 32.6955C40.7526 33.069 38.993 33.3706 37.14 33.5861C37.729 32.6453 38.3035 31.6972 38.8637 30.7277ZM40.4725 22.1883C39.9554 21.2043 39.4167 20.2276 38.8565 19.2652C38.3035 18.3172 37.7361 17.3763 37.1472 16.457C38.9427 16.6869 40.6592 16.9813 42.2752 17.3548C41.7868 18.9061 41.1835 20.5292 40.4725 22.1883ZM28.9669 9.63414C30.073 10.8335 31.1862 12.1766 32.2778 13.6273C30.0658 13.5196 27.8465 13.5196 25.6345 13.6273C26.719 12.1837 27.8394 10.8479 28.9669 9.63414ZM16.0178 2.78251C17.8995 1.69085 22.0578 3.24934 26.4389 7.1348C26.719 7.38617 26.9991 7.64472 27.2792 7.91046C25.6488 9.66286 24.0329 11.6595 22.4888 13.8356C19.8458 14.0798 17.3105 14.4748 14.9908 14.9991C14.8471 14.4245 14.7178 13.85 14.6029 13.2682C13.5472 7.88173 14.251 3.80954 16.0178 2.78251ZM13.2743 32.2143C12.8074 32.0779 12.3478 31.9342 11.8881 31.7834C9.14462 30.8498 6.88229 29.6288 5.33097 28.3002C3.93767 27.1079 3.23383 25.9229 3.23383 24.9605C3.23383 22.9137 6.28618 20.2994 11.3782 18.5254C12.0174 18.3028 12.6638 18.1017 13.3102 17.915C14.014 20.206 14.9333 22.5976 16.0537 25.018C14.9189 27.467 13.9853 29.9017 13.2743 32.2143ZM26.288 43.1597C24.1047 45.0629 21.9214 46.4203 19.9966 47.1026C18.2658 47.7131 16.8868 47.7346 16.0537 47.2534C14.2797 46.2336 13.54 42.2835 14.5455 36.9904C14.6676 36.3655 14.804 35.7407 14.9549 35.1231C17.2603 35.633 19.8027 35.9993 22.5319 36.2219C24.0904 38.4124 25.7135 40.4234 27.3582 42.183C27.0134 42.5133 26.6543 42.8437 26.288 43.1597ZM29.0316 40.4449C27.8968 39.2168 26.7549 37.8594 25.6488 36.3943C26.7261 36.4374 27.825 36.4589 28.9382 36.4589C30.0873 36.4589 31.2149 36.4302 32.3353 36.3871C31.2364 37.8738 30.1304 39.2383 29.0316 40.4449ZM43.611 43.7917C43.2735 45.5944 42.6055 46.801 41.7724 47.2822C39.9985 48.3092 36.2136 46.9733 32.127 43.4613C31.6602 43.0592 31.1862 42.6282 30.7122 42.1758C32.2994 40.4449 33.8794 38.4268 35.4235 36.1932C38.1383 35.949 40.7095 35.5611 43.0365 35.0225C43.1514 35.4822 43.2519 35.9418 43.3381 36.3799C43.9055 39.2096 43.9845 41.7808 43.611 43.7917ZM45.6507 31.7978C45.3419 31.8983 45.0259 31.9989 44.7099 32.0922C43.9989 29.8371 43.0365 27.4455 41.8658 24.9677C42.9862 22.5546 43.9127 20.1845 44.6021 17.9509C45.1767 18.1161 45.7369 18.2956 46.2755 18.4752C51.4753 20.2635 54.6498 22.9137 54.6498 24.9533C54.6426 27.1295 51.2168 29.952 45.6507 31.7978ZM28.9382 29.9736C31.7105 29.9736 33.9584 27.7256 33.9584 24.9533C33.9584 22.1811 31.7105 19.9331 28.9382 19.9331C26.166 19.9331 23.918 22.1811 23.918 24.9533C23.918 27.7256 26.166 29.9736 28.9382 29.9736ZM28.9382 19.9331C26.166 19.9331 23.918 22.1811 23.918 24.9533C23.918 27.7256 26.166 29.9736 28.9382 29.9736C31.7105 29.9736 33.9584 27.7256 33.9584 24.9533C33.9584 22.1811 31.7105 19.9331 28.9382 19.9331ZM28.9382 19.9331C26.166 19.9331 23.918 22.1811 23.918 24.9533C23.918 27.7256 26.166 29.9736 28.9382 29.9736C31.7105 29.9736 33.9584 27.7256 33.9584 24.9533C33.9584 22.1811 31.7105 19.9331 28.9382 19.9331ZM28.9382 19.9331C26.166 19.9331 23.918 22.1811 23.918 24.9533C23.918 27.7256 26.166 29.9736 28.9382 29.9736C31.7105 29.9736 33.9584 27.7256 33.9584 24.9533C33.9584 22.1811 31.7105 19.9331 28.9382 19.9331ZM28.9382 19.9331C26.166 19.9331 23.918 22.1811 23.918 24.9533C23.918 27.7256 26.166 29.9736 28.9382 29.9736C31.7105 29.9736 33.9584 27.7256 33.9584 24.9533C33.9584 22.1811 31.7105 19.9331 28.9382 19.9331ZM28.9382 19.9331C26.166 19.9331 23.918 22.1811 23.918 24.9533C23.918 27.7256 26.166 29.9736 28.9382 29.9736C31.7105 29.9736 33.9584 27.7256 33.9584 24.9533C33.9584 22.1811 31.7105 19.9331 28.9382 19.9331ZM28.9382 19.9331C26.166 19.9331 23.918 22.1811 23.918 24.9533C23.918 27.7256 26.166 29.9736 28.9382 29.9736C31.7105 29.9736 33.9584 27.7256 33.9584 24.9533C33.9584 22.1811 31.7105 19.9331 28.9382 19.9331ZM28.9382 19.9331C26.166 19.9331 23.918 22.1811 23.918 24.9533C23.918 27.7256 26.166 29.9736 28.9382 29.9736C31.7105 29.9736 33.9584 27.7256 33.9584 24.9533C33.9584 22.1811 31.7105 19.9331 28.9382 19.9331ZM28.9382 19.9331C26.166 19.9331 23.918 22.1811 23.918 24.9533C23.918 27.7256 26.166 29.9736 28.9382 29.9736C31.7105 29.9736 33.9584 27.7256 33.9584 24.9533C33.9584 22.1811 31.7105 19.9331 28.9382 19.9331ZM28.9382 19.9331C26.166 19.9331 23.918 22.1811 23.918 24.9533C23.918 27.7256 26.166 29.9736 28.9382 29.9736C31.7105 29.9736 33.9584 27.7256 33.9584 24.9533C33.9584 22.1811 31.7105 19.9331 28.9382 19.9331ZM28.9382 19.9331C26.166 19.9331 23.918 22.1811 23.918 24.9533C23.918 27.7256 26.166 29.9736 28.9382 29.9736C31.7105 29.9736 33.9584 27.7256 33.9584 24.9533C33.9584 22.1811 31.7105 19.9331 28.9382 19.9331Z" fill="#F8FCF7"/>
<path d="M28.9382 19.9331C26.166 19.9331 23.918 22.1811 23.918 24.9533C23.918 27.7256 26.166 29.9736 28.9382 29.9736C31.7105 29.9736 33.9584 27.7256 33.9584 24.9533C33.9584 22.1811 31.7105 19.9331 28.9382 19.9331ZM28.9382 19.9331C26.166 19.9331 23.918 22.1811 23.918 24.9533C23.918 27.7256 26.166 29.9736 28.9382 29.9736C31.7105 29.9736 33.9584 27.7256 33.9584 24.9533C33.9584 22.1811 31.7105 19.9331 28.9382 19.9331ZM28.9382 19.9331C26.166 19.9331 23.918 22.1811 23.918 24.9533C23.918 27.7256 26.166 29.9736 28.9382 29.9736C31.7105 29.9736 33.9584 27.7256 33.9584 24.9533C33.9584 22.1811 31.7105 19.9331 28.9382 19.9331ZM28.9382 19.9331C26.166 19.9331 23.918 22.1811 23.918 24.9533C23.918 27.7256 26.166 29.9736 28.9382 29.9736C31.7105 29.9736 33.9584 27.7256 33.9584 24.9533C33.9584 22.1811 31.7105 19.9331 28.9382 19.9331ZM28.9382 19.9331C26.166 19.9331 23.918 22.1811 23.918 24.9533C23.918 27.7256 26.166 29.9736 28.9382 29.9736C31.7105 29.9736 33.9584 27.7256 33.9584 24.9533C33.9584 22.1811 31.7105 19.9331 28.9382 19.9331ZM28.9382 19.9331C26.166 19.9331 23.918 22.1811 23.918 24.9533C23.918 27.7256 26.166 29.9736 28.9382 29.9736C31.7105 29.9736 33.9584 27.7256 33.9584 24.9533C33.9584 22.1811 31.7105 19.9331 28.9382 19.9331ZM28.9382 19.9331C26.166 19.9331 23.918 22.1811 23.918 24.9533C23.918 27.7256 26.166 29.9736 28.9382 29.9736C31.7105 29.9736 33.9584 27.7256 33.9584 24.9533C33.9584 22.1811 31.7105 19.9331 28.9382 19.9331ZM28.9382 19.9331C26.166 19.9331 23.918 22.1811 23.918 24.9533C23.918 27.7256 26.166 29.9736 28.9382 29.9736C31.7105 29.9736 33.9584 27.7256 33.9584 24.9533C33.9584 22.1811 31.7105 19.9331 28.9382 19.9331ZM28.9382 19.9331C26.166 19.9331 23.918 22.1811 23.918 24.9533C23.918 27.7256 26.166 29.9736 28.9382 29.9736C31.7105 29.9736 33.9584 27.7256 33.9584 24.9533C33.9584 22.1811 31.7105 19.9331 28.9382 19.9331ZM28.9382 19.9331C26.166 19.9331 23.918 22.1811 23.918 24.9533C23.918 27.7256 26.166 29.9736 28.9382 29.9736C31.7105 29.9736 33.9584 27.7256 33.9584 24.9533C33.9584 22.1811 31.7105 19.9331 28.9382 19.9331ZM28.9382 19.9331C26.166 19.9331 23.918 22.1811 23.918 24.9533C23.918 27.7256 26.166 29.9736 28.9382 29.9736C31.7105 29.9736 33.9584 27.7256 33.9584 24.9533C33.9584 22.1811 31.7105 19.9331 28.9382 19.9331ZM28.9382 19.9331C26.166 19.9331 23.918 22.1811 23.918 24.9533C23.918 27.7256 26.166 29.9736 28.9382 29.9736C31.7105 29.9736 33.9584 27.7256 33.9584 24.9533C33.9584 22.1811 31.7105 19.9331 28.9382 19.9331ZM47.0512 16.2057C46.4551 15.9974 45.8518 15.8107 45.2413 15.6383C45.3419 15.2289 45.4353 14.8195 45.5214 14.403C46.8932 7.75245 45.9954 2.39468 42.9359 0.635092C40.0057 -1.05268 35.2081 0.706912 30.3602 4.92275C29.8862 5.3393 29.4194 5.77022 28.9597 6.20832C28.6581 5.91386 28.3421 5.62658 28.0261 5.34648C22.9484 0.836189 17.8636 -1.05986 14.804 0.706912C11.8738 2.40186 11.0048 7.43645 12.2401 13.7422C12.3622 14.3671 12.4986 14.9847 12.6566 15.6024C11.9384 15.8035 11.2418 16.0261 10.5738 16.2559C4.61996 18.3315 0.820679 21.585 0.820679 24.9533C0.820679 28.4366 4.90005 31.9342 11.0981 34.0529C11.6009 34.2253 12.1108 34.3833 12.6207 34.5269C12.4555 35.1949 12.3047 35.8628 12.1826 36.5307C11.0048 42.7216 11.924 47.6413 14.8471 49.3219C17.8636 51.0599 22.9269 49.2716 27.8609 44.9624C28.2487 44.6248 28.6437 44.2585 29.0316 43.8779C29.5271 44.3519 30.0299 44.8187 30.5542 45.264C35.3302 49.3721 40.0488 51.0384 42.9718 49.3434C45.9883 47.5982 46.965 42.3194 45.6938 35.8915C45.5933 35.4031 45.4855 34.9004 45.3562 34.3905C45.7153 34.2828 46.0601 34.175 46.4048 34.0673C52.8471 31.9342 57.0414 28.4797 57.0414 24.9533C57.0485 21.5706 53.12 18.2956 47.0512 16.2057ZM31.9403 6.73261C36.0915 3.12006 39.9698 1.69803 41.7365 2.71069C43.6182 3.79517 44.3508 8.17619 43.1657 13.9146C43.0867 14.2881 43.0006 14.6615 42.9144 15.035C40.5802 14.4964 38.0522 14.0942 35.3948 13.85C33.8507 11.6523 32.2491 9.6485 30.6403 7.91764C31.0713 7.50827 31.5022 7.11326 31.9403 6.73261ZM17.4326 27.8405C17.9426 28.8244 18.474 29.794 19.027 30.7492C19.5944 31.726 20.1833 32.6884 20.7938 33.6364C18.9552 33.4281 17.2172 33.1552 15.6156 32.8033C16.104 31.1945 16.7144 29.5355 17.4326 27.8405ZM17.4255 22.1883C16.7288 20.5292 16.1255 18.8989 15.6371 17.3261C17.2387 16.967 18.9552 16.6725 20.7364 16.4499C20.1403 17.3835 19.5657 18.3244 19.0127 19.2796C18.4597 20.2419 17.9354 21.2115 17.4255 22.1883ZM18.7039 25.0108C19.4436 23.4738 20.2408 21.9584 21.0955 20.479C21.9501 18.9995 22.8551 17.5487 23.8174 16.141C25.4908 16.0118 27.2002 15.9471 28.9382 15.9471C30.6762 15.9471 32.3927 16.0118 34.0662 16.141C35.0214 17.5487 35.9263 18.9923 36.7738 20.4646C37.6284 21.9441 38.44 23.4451 39.1941 24.9749C38.44 26.519 37.6356 28.0344 36.7809 29.5283C35.9263 31.0078 35.0285 32.4585 34.0877 33.8806C32.4215 34.0027 30.6978 34.0601 28.9382 34.0601C27.1858 34.0601 25.4908 34.0027 23.8462 33.9021C22.8766 32.4873 21.9573 31.0293 21.0955 29.5426C20.248 28.0631 19.4436 26.5549 18.7039 25.0108ZM38.8637 30.7277C39.4311 29.7437 39.9698 28.7526 40.494 27.7471C41.2481 29.4565 41.8802 31.1155 42.3829 32.6955C40.7526 33.069 38.993 33.3706 37.14 33.5861C37.729 32.6453 38.3035 31.6972 38.8637 30.7277ZM40.4725 22.1883C39.9554 21.2043 39.4167 20.2276 38.8565 19.2652C38.3035 18.3172 37.7361 17.3763 37.1472 16.457C38.9427 16.6869 40.6592 16.9813 42.2752 17.3548C41.7868 18.9061 41.1835 20.5292 40.4725 22.1883ZM28.9669 9.63414C30.073 10.8335 31.1862 12.1766 32.2778 13.6273C30.0658 13.5196 27.8465 13.5196 25.6345 13.6273C26.719 12.1837 27.8394 10.8479 28.9669 9.63414ZM16.0178 2.78251C17.8995 1.69085 22.0578 3.24934 26.4389 7.1348C26.719 7.38617 26.9991 7.64472 27.2792 7.91046C25.6488 9.66286 24.0329 11.6595 22.4888 13.8356C19.8458 14.0798 17.3105 14.4748 14.9908 14.9991C14.8471 14.4245 14.7178 13.85 14.6029 13.2682C13.5472 7.88173 14.251 3.80954 16.0178 2.78251ZM13.2743 32.2143C12.8074 32.0779 12.3478 31.9342 11.8881 31.7834C9.14462 30.8498 6.88229 29.6288 5.33097 28.3002C3.93767 27.1079 3.23383 25.9229 3.23383 24.9605C3.23383 22.9137 6.28618 20.2994 11.3782 18.5254C12.0174 18.3028 12.6638 18.1017 13.3102 17.915C14.014 20.206 14.9333 22.5976 16.0537 25.018C14.9189 27.467 13.9853 29.9017 13.2743 32.2143ZM26.288 43.1597C24.1047 45.0629 21.9214 46.4203 19.9966 47.1026C18.2658 47.7131 16.8868 47.7346 16.0537 47.2534C14.2797 46.2336 13.54 42.2835 14.5455 36.9904C14.6676 36.3655 14.804 35.7407 14.9549 35.1231C17.2603 35.633 19.8027 35.9993 22.5319 36.2219C24.0904 38.4124 25.7135 40.4234 27.3582 42.183C27.0134 42.5133 26.6543 42.8437 26.288 43.1597ZM29.0316 40.4449C27.8968 39.2168 26.7549 37.8594 25.6488 36.3943C26.7261 36.4374 27.825 36.4589 28.9382 36.4589C30.0873 36.4589 31.2149 36.4302 32.3353 36.3871C31.2364 37.8738 30.1304 39.2383 29.0316 40.4449ZM43.611 43.7917C43.2735 45.5944 42.6055 46.801 41.7724 47.2822C39.9985 48.3092 36.2136 46.9733 32.127 43.4613C31.6602 43.0592 31.1862 42.6282 30.7122 42.1758C32.2994 40.4449 33.8794 38.4268 35.4235 36.1932C38.1383 35.949 40.7095 35.5611 43.0365 35.0225C43.1514 35.4822 43.2519 35.9418 43.3381 36.3799C43.9055 39.2096 43.9845 41.7808 43.611 43.7917ZM45.6507 31.7978C45.3419 31.8983 45.0259 31.9989 44.7099 32.0922C43.9989 29.8371 43.0365 27.4455 41.8658 24.9677C42.9862 22.5546 43.9127 20.1845 44.6021 17.9509C45.1767 18.1161 45.7369 18.2956 46.2755 18.4752C51.4753 20.2635 54.6498 22.9137 54.6498 24.9533C54.6426 27.1295 51.2168 29.952 45.6507 31.7978ZM28.9382 29.9736C31.7105 29.9736 33.9584 27.7256 33.9584 24.9533C33.9584 22.1811 31.7105 19.9331 28.9382 19.9331C26.166 19.9331 23.918 22.1811 23.918 24.9533C23.918 27.7256 26.166 29.9736 28.9382 29.9736ZM28.9382 19.9331C26.166 19.9331 23.918 22.1811 23.918 24.9533C23.918 27.7256 26.166 29.9736 28.9382 29.9736C31.7105 29.9736 33.9584 27.7256 33.9584 24.9533C33.9584 22.1811 31.7105 19.9331 28.9382 19.9331ZM28.9382 19.9331C26.166 19.9331 23.918 22.1811 23.918 24.9533C23.918 27.7256 26.166 29.9736 28.9382 29.9736C31.7105 29.9736 33.9584 27.7256 33.9584 24.9533C33.9584 22.1811 31.7105 19.9331 28.9382 19.9331ZM28.9382 19.9331C26.166 19.9331 23.918 22.1811 23.918 24.9533C23.918 27.7256 26.166 29.9736 28.9382 29.9736C31.7105 29.9736 33.9584 27.7256 33.9584 24.9533C33.9584 22.1811 31.7105 19.9331 28.9382 19.9331ZM28.9382 19.9331C26.166 19.9331 23.918 22.1811 23.918 24.9533C23.918 27.7256 26.166 29.9736 28.9382 29.9736C31.7105 29.9736 33.9584 27.7256 33.9584 24.9533C33.9584 22.1811 31.7105 19.9331 28.9382 19.9331ZM28.9382 19.9331C26.166 19.9331 23.918 22.1811 23.918 24.9533C23.918 27.7256 26.166 29.9736 28.9382 29.9736C31.7105 29.9736 33.9584 27.7256 33.9584 24.9533C33.9584 22.1811 31.7105 19.9331 28.9382 19.9331ZM28.9382 19.9331C26.166 19.9331 23.918 22.1811 23.918 24.9533C23.918 27.7256 26.166 29.9736 28.9382 29.9736C31.7105 29.9736 33.9584 27.7256 33.9584 24.9533C33.9584 22.1811 31.7105 19.9331 28.9382 19.9331ZM28.9382 19.9331C26.166 19.9331 23.918 22.1811 23.918 24.9533C23.918 27.7256 26.166 29.9736 28.9382 29.9736C31.7105 29.9736 33.9584 27.7256 33.9584 24.9533C33.9584 22.1811 31.7105 19.9331 28.9382 19.9331ZM28.9382 19.9331C26.166 19.9331 23.918 22.1811 23.918 24.9533C23.918 27.7256 26.166 29.9736 28.9382 29.9736C31.7105 29.9736 33.9584 27.7256 33.9584 24.9533C33.9584 22.1811 31.7105 19.9331 28.9382 19.9331ZM28.9382 19.9331C26.166 19.9331 23.918 22.1811 23.918 24.9533C23.918 27.7256 26.166 29.9736 28.9382 29.9736C31.7105 29.9736 33.9584 27.7256 33.9584 24.9533C33.9584 22.1811 31.7105 19.9331 28.9382 19.9331ZM28.9382 19.9331C26.166 19.9331 23.918 22.1811 23.918 24.9533C23.918 27.7256 26.166 29.9736 28.9382 29.9736C31.7105 29.9736 33.9584 27.7256 33.9584 24.9533C33.9584 22.1811 31.7105 19.9331 28.9382 19.9331Z" fill="#010500"/>
<path d="M28.9386 19.9326C26.1663 19.9326 23.9183 22.1806 23.9183 24.9528C23.9183 27.7251 26.1663 29.9731 28.9386 29.9731C31.7108 29.9731 33.9588 27.7251 33.9588 24.9528C33.9588 22.1806 31.7108 19.9326 28.9386 19.9326Z" fill="#F8FCF7"/>
<path d="M33.9588 24.9528C33.9588 27.7251 31.7108 29.9731 28.9386 29.9731C26.1663 29.9731 23.9183 27.7251 23.9183 24.9528C23.9183 22.1806 26.1663 19.9326 28.9386 19.9326C31.7108 19.9326 33.9588 22.1806 33.9588 24.9528Z" fill="#010500"/>
</g>
<defs>
<clipPath id="clip0_925_3293">
<rect width="56.2207" height="50" fill="white" transform="translate(0.820679)"/>
</clipPath>
</defs>
</svg>
