<svg width="50" height="50" viewBox="0 0 50 50" fill="none" xmlns="http://www.w3.org/2000/svg">
<path d="M40.7969 27.4564C39.4229 27.4582 38.0674 27.7723 36.8328 28.3751C36.4462 27.7336 36.1477 27.0431 35.9453 26.322C35.829 25.7568 35.8021 25.1768 35.8656 24.6032C35.9992 23.9721 36.1724 23.35 36.3843 22.7407C36.3765 22.6611 36.289 22.2845 35.4094 22.272C34.5297 22.2595 33.7719 22.4392 33.6906 22.672C33.5378 23.0972 33.4151 23.5327 33.3234 23.9751C32.5954 25.7712 31.6992 27.4945 30.6469 29.122C30.0573 28.1554 29.8148 27.0168 29.9594 25.8939C30.0929 25.2627 30.2662 24.6407 30.4781 24.0314C30.4703 23.9517 30.3828 23.5751 29.5031 23.5626C28.6234 23.5501 27.8656 23.7298 27.7844 23.9626C27.7031 24.1954 27.6 24.7439 27.4172 25.2657C27.2344 25.7876 25.1 30.5564 24.5406 31.7861C24.2531 32.4111 24.0047 32.9204 23.8297 33.2642C23.8214 33.2865 23.8109 33.308 23.7984 33.3282C23.6422 33.6236 23.5594 33.7845 23.5594 33.7845V33.7923C23.439 34.0079 23.3109 34.2079 23.2469 34.2079C23.1351 33.7615 23.1405 33.2938 23.2625 32.8501C23.575 31.1954 24.3406 28.6236 24.3328 28.5345C24.3328 28.486 24.4765 28.0392 23.8375 27.8079C23.6893 27.7374 23.5228 27.7145 23.3611 27.7425C23.1993 27.7705 23.0503 27.8479 22.9344 27.9642C22.8781 27.9642 22.839 28.1001 22.839 28.1001C22.839 28.1001 23.5344 25.2079 21.5125 25.2079C20.7251 25.3663 19.9774 25.6805 19.3133 26.1321C18.6491 26.5837 18.082 27.1636 17.6453 27.8376C17.1015 28.1329 15.9437 28.7642 14.7047 29.4439C14.2359 29.7079 13.7453 29.972 13.2906 30.2251C13.2594 30.1939 13.2265 30.1532 13.1953 30.122C10.7344 27.5001 6.21091 25.6501 6.40623 22.1423C6.4781 20.8642 6.91716 17.5079 15.0922 13.4314C21.8203 10.1157 27.175 11.0345 28.1015 13.072C29.4281 15.9814 25.2328 21.3829 18.2812 22.1657C17.5122 22.3218 16.7179 22.3029 15.9571 22.1106C15.1963 21.9183 14.4885 21.5575 13.8859 21.0548C13.5187 20.6548 13.4625 20.6314 13.3265 20.7111C13.1031 20.8314 13.2469 21.1907 13.3265 21.3986C13.5917 21.8785 13.9504 22.3004 14.3814 22.6393C14.8124 22.9783 15.307 23.2274 15.8359 23.372C18.5707 23.963 21.4219 23.6804 23.9875 22.5642C28.2062 20.9345 31.4875 16.4032 30.525 12.6079C29.5578 8.75636 23.1656 7.48605 17.1156 9.63918C13.3261 10.9143 9.82471 12.9228 6.81091 15.5501C3.4781 18.6673 2.95154 21.3751 3.16716 22.5111C3.94841 26.5392 9.49685 29.1595 11.7172 31.1048C11.6047 31.1689 11.5015 31.2251 11.414 31.272C10.3031 31.8236 6.06873 34.0376 5.00779 36.3782C3.80935 39.0345 5.19998 40.9329 6.11873 41.1892C7.50311 41.5206 8.95642 41.4114 10.2758 40.8769C11.5951 40.3425 12.7147 39.4094 13.4781 38.2079C14.1282 37.2114 14.5278 36.0725 14.6429 34.8882C14.758 33.704 14.5851 32.5094 14.139 31.4064C14.1315 31.3885 14.1209 31.3721 14.1078 31.3579L14.9781 30.847C15.5453 30.5111 16.1047 30.2001 16.5844 29.9439C16.2591 30.8821 16.0681 31.8616 16.0172 32.8532C15.9067 34.3732 16.3719 35.8791 17.3203 37.072C17.4646 37.1962 17.6321 37.2906 17.8132 37.3496C17.9942 37.4086 18.1852 37.4311 18.375 37.4157C19.3125 37.4157 19.7422 36.6345 20.2125 35.7064C20.7875 34.572 21.3062 33.2532 21.3062 33.2532C21.3062 33.2532 20.6594 36.8173 22.4172 36.8173C23.0562 36.8173 23.7031 35.9861 23.9922 35.5673V35.5751C23.9922 35.5751 24.0078 35.5517 24.0406 35.4954L24.1437 35.3282V35.3126C24.4 34.8657 24.975 33.8501 25.8297 32.1642C26.9328 29.9907 27.9953 27.2736 27.9953 27.2736C28.0978 27.8707 28.2392 28.4605 28.4187 29.0392C28.6761 29.7406 28.9804 30.424 29.3297 31.0845C29.0734 31.4439 28.914 31.6439 28.914 31.6439L28.9219 31.6517C28.714 31.9236 28.4906 32.2189 28.2422 32.5064C27.503 33.319 26.8172 34.1786 26.189 35.0798C26.0957 35.2312 26.0636 35.4124 26.0993 35.5866C26.135 35.7608 26.2359 35.9149 26.3812 36.0173C26.7102 36.1885 27.0851 36.2503 27.4515 36.1939C28.0038 36.1627 28.5468 36.0385 29.0578 35.8267C29.5516 35.6529 30.0174 35.4082 30.4406 35.1001C30.8769 34.7978 31.2281 34.3884 31.4604 33.9112C31.6927 33.434 31.7984 32.905 31.7672 32.3751C31.718 31.7077 31.5475 31.0548 31.264 30.4486C31.3437 30.3361 31.4203 30.2251 31.4953 30.1126C32.3836 28.7867 33.1843 27.404 33.8922 25.9736C33.9946 26.5707 34.1361 27.1605 34.3156 27.7392C34.5279 28.3454 34.7891 28.9332 35.0969 29.497C34.0749 30.2833 33.2699 31.3168 32.7578 32.5001C32.2547 33.9548 32.6453 34.6095 33.3828 34.7611C33.7863 34.7889 34.1899 34.7062 34.55 34.522C35.0795 34.348 35.5783 34.0917 36.0281 33.7626C36.5024 33.4827 36.8997 33.0892 37.1841 32.6177C37.4686 32.1461 37.6314 31.6112 37.6578 31.0611C37.6223 30.5119 37.4983 29.9722 37.2906 29.4626C38.6392 28.9358 40.1014 28.7678 41.5344 28.9751C45.3375 29.422 46.089 31.7954 45.9453 32.7954C45.8779 33.1499 45.7353 33.4859 45.5273 33.7807C45.3192 34.0756 45.0504 34.3225 44.739 34.5048C44.475 34.672 44.3875 34.7282 44.4109 34.8486C44.4422 35.0251 44.5672 35.0157 44.7937 34.9845C45.3669 34.8063 45.8726 34.4586 46.2442 33.9872C46.6158 33.5158 46.8357 32.9428 46.875 32.3439C46.9953 30.0001 44.7578 27.4298 40.8015 27.4532L40.7969 27.4564ZM11.4531 37.3439C10.1906 38.7189 8.43279 39.2376 7.67341 38.7986C6.85779 38.3298 7.1781 36.2986 8.7281 34.8423C9.64755 34.0146 10.6413 33.2735 11.6969 32.6282C11.8812 32.5157 12.1531 32.3564 12.4781 32.1595L12.5656 32.1111L12.7578 31.9907C13.0347 32.9185 13.0598 33.9033 12.8305 34.844C12.6013 35.7847 12.1259 36.6475 11.4531 37.3439ZM20.6422 31.0939C20.2031 32.1642 19.2844 34.9064 18.725 34.7532C18.2453 34.6251 17.9437 32.547 18.6297 30.4939C18.976 29.5055 19.4805 28.5799 20.1234 27.7532C20.8109 26.986 21.5703 26.7298 21.7531 27.0423C21.5863 28.4405 21.2119 29.8061 20.6422 31.0939ZM28.225 34.722C28.0406 34.8173 27.8656 34.8782 27.7859 34.8345C27.7297 34.8032 27.8656 34.6782 27.8656 34.6782C27.8656 34.6782 28.8172 33.6548 29.1922 33.1923C29.4078 32.9204 29.6609 32.6017 29.9359 32.2407V32.3439C29.9359 33.5657 28.7531 34.3892 28.2265 34.7251L28.225 34.722ZM34.075 33.3876C33.939 33.2923 33.9625 32.972 34.4187 31.9736C34.736 31.3323 35.1792 30.7616 35.7219 30.2954C35.805 30.5319 35.8483 30.7806 35.85 31.0314C35.8561 31.565 35.6855 32.0857 35.3647 32.5122C35.0439 32.9387 34.591 33.2471 34.0765 33.3892L34.075 33.3876Z" fill="#010500"/>
</svg>
